<svg viewBox="0 0 20 20" fill="none" stroke="currentColor" stroke-linecap="round" stroke-linejoin="round" xmlns="http://www.w3.org/2000/svg">
    <path d="M2.207 18.662a.514.514 0 0 1-.167-.053.408.408 0 0 1-.16-.168c-.044-.092-.05-.166-.032-.354.012-.13.044-.342.07-.47.026-.128.085-.36.131-.514.046-.155.122-.387.17-.515a16.246 16.246 0 0 1 .614-1.427c.09-.182.254-.496.364-.696.11-.201.297-.53.416-.73.12-.201.365-.59.547-.863.182-.274.45-.662.595-.863.145-.2.399-.537.564-.747.165-.21.472-.583.682-.83a26.95 26.95 0 0 1 2.01-2.06 22.986 22.986 0 0 1 1.755-1.417c.183-.129.554-.376.825-.548.272-.171.736-.443 1.033-.603.3-.162.563-.326.591-.369a.44.44 0 0 0 .055-.193.475.475 0 0 0-.042-.2.444.444 0 0 0-.125-.137.457.457 0 0 0-.206-.054c-.094 0-.235.056-.552.223-.234.124-.627.345-.873.492-.246.147-.61.38-.811.516a20.038 20.038 0 0 0-1.457 1.095c-.164.137-.522.454-.796.704-.275.25-.7.67-.945.93-.245.263-.55.596-.679.742-.128.146-.367.43-.531.63-.164.201-.433.545-.598.764a28.43 28.43 0 0 0-1.316 1.95c-.181.3-.287.44-.358.477a.391.391 0 0 1-.23.035.437.437 0 0 1-.198-.078 1.349 1.349 0 0 1-.182-.31 7.999 7.999 0 0 1-.214-.53 6.917 6.917 0 0 1-.18-.631 7.194 7.194 0 0 1-.12-.821 4.952 4.952 0 0 1 .001-.963c.022-.27.077-.669.122-.888.044-.219.127-.538.184-.709.057-.17.155-.432.218-.58.063-.15.183-.397.266-.552.084-.155.24-.412.346-.571.107-.16.304-.421.438-.582a10.318 10.318 0 0 1 1.197-1.176c.127-.102.361-.276.52-.387.159-.111.468-.308.687-.438a14.557 14.557 0 0 1 1.756-.863 20.994 20.994 0 0 1 1.506-.525 24.605 24.605 0 0 1 1.87-.467c.265-.054.704-.136.977-.181.273-.046.72-.113.993-.15.274-.037.72-.09.994-.119.273-.027.802-.072 1.175-.099.373-.026 1.14-.065 1.705-.086.564-.021 1.186-.033 1.38-.026.339.01.358.015.455.108.055.054.11.146.121.205.011.059.01.142-.004.184-.013.041-.167.226-.342.41-.176.183-.446.483-.602.665a12.793 12.793 0 0 0-1.343 1.847 13.73 13.73 0 0 0-.822 1.644c-.083.205-.21.54-.281.746-.072.206-.175.532-.23.723-.054.192-.161.617-.237.946-.076.328-.196.83-.266 1.115a16.722 16.722 0 0 1-.594 1.888c-.07.174-.19.45-.266.614-.077.164-.223.44-.324.614-.1.173-.288.465-.417.647a6.9 6.9 0 0 1-.63.732c-.275.275-.51.474-.756.638a6.524 6.524 0 0 1-.662.385c-.168.08-.446.192-.62.249a7.062 7.062 0 0 1-.634.17c-.176.036-.459.08-.629.099-.17.018-.51.032-.756.033-.246 0-.648-.022-.894-.048a11.5 11.5 0 0 1-.728-.102 8.783 8.783 0 0 1-.58-.136 9.407 9.407 0 0 1-.579-.185 6.75 6.75 0 0 1-1.076-.517 6.818 6.818 0 0 1-.439-.296l-.24-.177-.261.54c-.144.297-.32.682-.394.855-.073.174-.18.449-.236.612-.057.163-.14.424-.184.58a4.977 4.977 0 0 0-.119.6 1.93 1.93 0 0 1-.083.402.387.387 0 0 1-.158.141.54.54 0 0 1-.175.054z"/>
</svg>