<svg xmlns="http://www.w3.org/2000/svg" fill="none" stroke="currentColor" stroke-linecap="round" stroke-linejoin="round" viewBox="0 0 20 20">
  <path d="M4.7 19.4h-.3l-.1-.2-1.8-3.4A87.8 87.8 0 0 1 1 12.1c0-.2.1-.2.6-.5l.5-.2H3l.3.3a69.4 69.4 0 0 1 3 6.8l-.3.3-.6.3-.6.3zm5.7-2.2H7.2l-1.6-3.1L4.1 11l.3-.3a8.3 8.3 0 0 1 .9-.7 4.3 4.3 0 0 1 1.5-.6 4.7 4.7 0 0 1 1.4 0 6.6 6.6 0 0 1 .9.4l.3.1.4.3.4.3.2.1h3.3l.2.2.3.2.2.3v.9l-.2.3-.3.2-1.5.1-1.5.1-.2.3v.5l.3.2h3l.3-.1 1.8-2c1-1.4 1.6-2 1.7-2l.3-.2h.4l.4.1.3.3.2.4v.7a103.3 103.3 0 0 1-4 5.5 3.7 3.7 0 0 1-1 .5h-.5l-3.5.1zm.3-8.7a12 12 0 0 1-3 0 .5.5 0 0 1-.2-.3l-.1-.6a4 4 0 0 1 .2-1.4 4 4 0 0 1 .5-.8l.1-.2.3.2.4.4.5.2.7.2.7.1A3.7 3.7 0 0 0 12 6a3.8 3.8 0 0 0 1-.6l.1-.2.2.3a3.8 3.8 0 0 1 .5 1l.1 1v.7l-.2.2h-3zm0-3.3h-.5L9.7 5a2 2 0 0 1-.6-.5 2 2 0 0 1-.4-.5l-.2-.5v-.9l.2-.6.4-.5.6-.5.6-.2h.5l.6.1.5.3.4.4.3.4.2.5v1l-.2.5-.3.4c0 .2-.3.3-.4.4l-.5.3a2 2 0 0 1-.6.1z"/>
</svg>
