<svg xmlns="http://www.w3.org/2000/svg" fill="currentColor" viewBox="0 0 20 20">
  <path d="M.3 19.4A3.1 3.1 0 0 1 3 16.6H3l-.7-.5-.4-.4-.1-.3V14l.1-.3c.2-.3.4-.5.8-.7.2-.2.3-.2.6-.2.4 0 .4 0 .7.2.4.2.6.4.8.7v1.9l-.3.5-.8.4h-.1.1c.8.2 1.3.5 1.8 1 .5.4.8 1.1 1 1.7 0 .2 0 .2 0 0s.2-.8.5-1.2c.4-.7 1.2-1.2 2-1.4h.3c-.2 0-.6-.3-.8-.5l-.3-.4-.2-.3V14l.2-.3c.2-.4.4-.6.8-.7.2-.2.3-.2.6-.2s.4 0 .7.2l.7.7.1.3V15.6l-.4.5-.7.4h-.2.2c.8.2 1.3.5 1.8 1 .4.4.8 1.1.9 1.7 0 .2 0 .2 0 0l.5-1.2c.5-.7 1.2-1.2 2-1.4h.3L15 16l-.4-.4-.1-.3V14l.1-.3c.2-.3.4-.5.8-.7.2-.2.3-.2.6-.2.4 0 .4 0 .7.2.4.2.6.4.8.7v1.9l-.3.5-.8.4h-.1.1c.6.2 1 .3 1.3.6a3.1 3.1 0 0 1 1.5 2.5H17.8v-.8a.3.3 0 0 0-.5 0l-.1.5v.4h-2.5v-.4l-.1-.5a.3.3 0 0 0-.4 0l-.1.5v.4h-2.5v-.4l-.1-.5a.3.3 0 0 0-.5 0v.9H8.3v-.9h-.5v.9H5.2v-.9a.3.3 0 0 0-.5 0l-.1.5v.4H2.2v-.4l-.1-.5h-.4l-.1.5v.4H.3Zm6.1-2c-.1-.2-.6-.7-1-.9l-.2-.2c.2-.2.3-.7.4-1a6 6 0 0 0 0-1.4c-.2-.6-.6-1.2-1.2-1.5a2 2 0 0 0-2 0l-.2.2V9.9L2 9.8a.3.3 0 0 0-.4 0h-.1V13.3l-.1.2c-.2.3-.2.7-.2 1v.4c-.2 0-.5-.3-.6-.5V9.7c0-.4.2-.8.5-1 .5-.5.8-.6 2-.6h.6c-.6-.2-1-.7-1.2-1.3V5.4a1.7 1.7 0 0 1 3.3 0v1.4c-.2.6-.6 1.1-1.3 1.3h4.5l.6-.6c.6-.9 1-1.3 1.3-1.4.5-.4 1.3 0 1.2.6 0 .2-.1.4-1.3 1.8l-1 1.2H6.6v7.9zm.8-6.8v-.3h3l1.2-1.4 1.3-1.7.1-.6c0-.5-.3-1-.8-1.2H12v-4h-.1a.3.3 0 0 0-.5 0v4H11c-.5 0-.8.3-1.9 1.6l-.4.5H6.3v-.2c.2-.3.3-.6.3-1.2 0-.7-.1-1-.3-1.3a2.3 2.3 0 0 0-2-1.4h-.2V.3h15.6V11H7.2z"/>
</svg>
