<svg xmlns="http://www.w3.org/2000/svg" fill="currentColor" viewBox="0 0 20 20">
  <path d="m1 20 .3-.9c.2-.2.5-.5.8-.6l.8-.3v.2l.6.6h1c.3-.1.6-.4.7-.6v-.2l.4.1.9.5.1.2-.1.3-.2.5v.3H1zm6 0 .1-.5c.2-.4.5-.8.9-1l1-.3a22.1 22.1 0 0 1 1 1.5 12.9 12.9 0 0 0 1-1.5l1 .3c.4.2.7.6.9 1l.2.5v.1H7Zm6.7-.2-.2-.5-.1-.3.2-.2.8-.5h.3v.3c0 .4.2.8.4 1.2l.2.3h-1.6zm3 0c.3-.4.4-.8.4-1.2l.1-.4.3.1.4.2c.5.2.9.7 1 1.2.2.5.3.4-1 .4h-1.3zm-.9 0a4 4 0 0 1-.3-.8l-.1-.2h1.1v.2l-.6.9v-.1zm-6-1.6-.4-.6v-.1h1.2v.2l-.6.8-.3-.3zm-6 .2a.8.8 0 0 1-.3-.3V17.5h1.1V18c0 .2-.3.3-.5.3H4zm11.5-.4v-.3l.1-.2h1.1v.6h-1.2zM1.6 15.8v-2.4a2.6 2.6 0 0 1 1.7-1.7l.8-.1h.7l1 .7c.3.3.5.6.6 1l.1.4V18l-.9-.4c-.3 0-.3 0-.4-.2l.2-.4.4-.5.1-.3V14h-.7c-.8 0-.9-.1-1.3-.6-.3-.3-.5-.5-.9-.4-.3 0-.5.2-.7.4V16.5l.4.5.2.4-.4.2-1 .4v-2.2zm12.3 1.9-.4-.5v-3.8a2.6 2.6 0 0 1 1.7-1.7l.7-.1h.8l1 .7c.3.3.5.6.6 1l.1.4v3.5l-.5.5h-.4l-.4-.3.2-.4.4-.5v-.3l.1-1.2V14h-.3a2 2 0 0 1-.5-.2c-.3 0-.5-.3-.6-.5l-.1-.6v-.4h-.7v1.1c-.3.3-.8.5-1.3.5H14v2.4l.1.3.4.5.2.4-.4.2h-.5zm-10.5-1a1 1 0 0 1-.5-.6v-2.5c.2-.2.3-.1.6.3.5.5.8.6 1.5.6h.3v1.8a1 1 0 0 1-.6.4l-.6.1h-.7zm6 0a1 1 0 0 1-.6-.6v-2H9c.3 0 .7-.2.9-.4h.2c.2.2.6.4.9.4h.2v2c-.1.3-.3.5-.5.6l-.7.1h-.7zm5.9 0a1 1 0 0 1-.6-.6v-1.6h.2l.8-.5.2-.2.2.1c.2.3.7.5 1 .5v1.8a1 1 0 0 1-.5.5l-.7.1h-.6zm-7.4-1.3a.7.7 0 0 1-.3-.8c0-.2.2-.4.4-.4h.1v.6c0 .8 0 .8-.2.6zm4-.6v-.6h.1c.3 0 .5.3.5.6s-.2.6-.5.7h-.1Zm-4.4-1.2v-.5l.5-1c.3-.3.6-.4 1-.5h2c.7.1 1.3.7 1.5 1.5v.5h-.8c-.7 0-1-.2-1.5-.6l-.2-.3-.2.3c-.5.4-.8.5-1.5.5h-.6l-.2.1zm-.6-.8c0-.2-.4-.7-.6-1l-1-.7a3 3 0 0 0-2.1 0h-.4V5h4.4v3.7a93.3 93.3 0 0 1-.3 4.2zm-2.8-3v-.2h-.7v.6h.7Zm1.2 0v-.2h-.6v.6h.6Zm1.3 0v-.2h-.7v.6h.7ZM4 8.7v-.4h-.7V9h.7Zm1.2 0v-.4h-.6V9h.6Zm1.3 0v-.4h-.7V9h.7ZM4 7.3v-.4h-.7v.7h.7Zm1.2 0v-.4h-.6v.7h.6Zm1.3 0v-.4h-.7v.7h.7ZM4 5.9v-.3h-.7v.7h.7Zm1.2 0v-.3h-.6v.7h.6Zm1.3 0v-.3h-.7v.7h.7Zm6.4 6.7c-.2-.6-.6-1.1-1.2-1.4l-.2-.2V5h5.6V11h-.4a3 3 0 0 0-1.4-.2c-1 .2-1.8.8-2.2 1.8l-.1.2zm-.2-2.7v-.3h-.6v.6h.6Zm1.3 0v-.3h-.7v.6h.7zm1.2 0v-.3h-.6v.6h.6Zm1.3 0v-.3h-.7v.6h.7zm-3.8-1.3v-.4h-.6V9h.6Zm1.3 0v-.4h-.7V9h.7zm1.2 0v-.4h-.6V9h.6Zm1.3 0v-.4h-.7V9h.7zm-3.8-1.3v-.4h-.6v.7h.6Zm1.3 0v-.4h-.7v.7h.7zm1.2 0v-.4h-.6v.7h.6Zm1.3 0v-.4h-.7v.7h.7Zm-3.8-1.4v-.3h-.6v.7h.6Zm1.3 0v-.3h-.7v.7h.7zm1.2 0v-.3h-.6v.7h.6Zm1.3 0v-.3h-.7v.7h.7zM7.8 7.5V3.6h4.4v.7H10.9v6.6H8.8l-.9.4v.1zM9.1 10v-.3h-.7v.6h.7Zm1.2 0v-.3h-.6v.6h.6ZM9.1 8.6v-.4h-.7V9h.7Zm1.2 0v-.4h-.6V9h.6ZM9.1 7.3v-.4h-.7v.7h.7Zm1.2 0v-.4h-.6v.7h.6ZM9.1 5.9v-.3h-.7v.7h.7Zm1.2 0v-.3h-.6v.7h.6ZM9.1 4.6v-.3h-.7v.6h.7Zm1.2 0v-.3h-.6v.6h.6Zm-2.5-2v-.3h4.4V3H7.8Zm.6-1.3V1h.7v.6h-.7ZM9.7 1V.3h.6V1.6h-.6Zm1.2.3V1h.7v.6h-.7Z"/>
</svg>
