<svg xmlns="http://www.w3.org/2000/svg" fill="currentColor" viewBox="0 0 20 20">
  <path d="m1.9 20-.8-.5c-.2-.2-.3-.5-.4-.9V6.2c.2-.4.6-.8 1-1H5l-.2.2-.2.6-.1.8v.8c.3.6.3.7 2 2.4a9.4 9.4 0 0 0 2 1.8c.3.2.8.3 1 .3h.1v3.3c0 3.6 0 3.5-.2 3.9-.2.3-.5.5-.8.6H5.3a30 30 0 0 1-3.4 0zM4 17.5l.1-.2.1-1.1v-1H6v2c.3.4.9.5 1.1 0v-5.2c-.2-.4-.8-.4-1 0v2.1H4.2V12c-.3-.4-.8-.4-1 0l-.1.1v5.1c.2.4.6.4.9.3zm13.8-2-.9-.2-2.7-2.7a27 27 0 0 0-2.8-2.7l-.5.4c-.5.4-.6.5-1.2.5-.7 0-.6 0-2.4-1.8L5.7 7.4c-.1-.5 0-1 .1-1.4L9 2.9l.3.7c.1.7 0 1.3-.2 1.9l-.1.5c0 .3.2.5.6.5.2 0 .4-.1.6-.5.4-.9.4-2.2.1-3.1L10 2l-.7.5-.3.2-.1-.2c-.3-.4-.8-1-1.4-1.2l-1.2-.2h-.8A3.2 3.2 0 0 0 3 4H2a4.2 4.2 0 0 1 7.7-2l.2.2h.4c.4 0 .4 0 .7.2a24.2 24.2 0 0 1 3.3 3.2l.2 1c0 .3-.2.6-.6 1l-.4.5.7.7.7.7.2.5c0 .3.1.5.2.5l.5.1.4.2.1.4.2.5.4.2.5.1.1.5.2.4.6.4.7.3.2 1c.2 1 .1 1 0 1.2h-1.3z"/>
</svg>
