<svg xmlns="http://www.w3.org/2000/svg" fill="currentColor" viewBox="0 0 20 20">
  <path d="M3.7 20c-.6-.2-1.1-.8-1.3-1.4a352.3 352.3 0 0 1-1-7.8l-.1-.2h-1A.6.6 0 0 1 0 10c0-.1.1-.4.3-.5H10a102.1 102.1 0 0 1 10 .3v.5c-.2.2-.4.3-.9.3h-.4v.2a1075.7 1075.7 0 0 0-1.1 7.8c-.2.6-.7 1.2-1.3 1.3H3.7zm3-2.4.3-.2v-2.7c0-2.7 0-2.6-.2-2.8a.7.7 0 0 0-.7 0c-.2.2-.2 0-.2 2.9v2.5l.1.1c.2.2.5.3.8.2zm3.6 0 .2-.2v-2.7c0-2.7 0-2.6-.2-2.8a.7.7 0 0 0-.6 0c-.3.2-.3 0-.3 2.9v2.5l.1.1c.2.2.5.3.8.2zm3.5 0 .2-.2.1-.2v-2.5c0-2.7 0-2.6-.2-2.8a.7.7 0 0 0-.7 0c-.3.2-.3 0-.3 2.9v2.5l.1.1c.2.2.5.3.8.2zM1.5 8.2a352.3 352.3 0 0 0 1-5.8c.2-.5.7-1 1.3-1.1H7V.8c0-.5 0-.7.3-.8L10 0h2.6c.2.2.3.4.3.9v.3h3.3c.6.2 1.1.7 1.3 1.2a72.6 72.6 0 0 1 1 5.8h-1.2L17 5.7a59 59 0 0 0-.7-3c-.1-.2-.1-.2-1.7-.2h-1.6v.4c0 .4 0 .6-.3.7H7.4c-.2-.1-.3-.3-.3-.7v-.4H5.5L4 2.5l-.3.2-.5 2.9-.4 2.7H1.5Zm2.7 0 .2-.4c.3-.6 1-1 1.8-1.1h.3v-.2c0-.4.2-1 .5-1.2a2 2 0 0 1 1.2-.5c.2 0 .5.1.5.3v.5c0 .2-.2.3-.5.3a1 1 0 0 0-.3.2l-.2.4.3.2c.8.1 1.5.5 1.7 1.1l.2.4H4.2Zm6.9-.1c.6-1.5 1.6-2.8 2.5-3.2l.6-.1.6.1c.6.3 1 1 1 1.9v1.4H11Z"/>
</svg>
