<svg xmlns="http://www.w3.org/2000/svg" fill="currentColor" viewBox="0 0 20 20">
  <path d="M1.5 20a.5.5 0 0 1-.2-.3L1.2 17v-2.5l.2-.3h2.1V20h-2zm3.2-3.1V13.6c.3-.3.6-.5 1.3-.7l1-.1h1.1c.7.2 1.3.6 1.8 1l.3.3h1c1 0 1.1 0 1.4.4.3.2.3.5.3.8 0 .5-.2.9-.7 1-.1.2-.2.2-1.3.2H9.7v.1c-.4.3-.3.8 0 1h1.2c1.1 0 1.2 0 1.7-.2l2.2-2c2-2.1 2-2.1 2.5-2.1.4 0 .6.1.9.3.2.3.3.5.3.8 0 .5 0 .5-2 2.6l-2.2 2c-.7.5-1.5.9-2.3 1H4.7ZM.4 11.8a.6.6 0 0 1-.4-.6v-.3c.2-.2.4-.3.8-.3h.4l.2-1a9 9 0 0 1 6.8-7l.2-.1V2c-.2-.5 0-1.2.4-1.6 1-1 2.8-.4 3 1l-.1 1 .2.1a8.8 8.8 0 0 1 6.9 8h.4c.4 0 .6.1.7.3.2.3 0 .6-.2.8H.4zm9.9-9.5c.3-.1.4-.6.2-.9a.6.6 0 0 0-1 .1c-.1.3 0 .7.3.8h.5z"/>
</svg>
