<?xml version="1.0" standalone="no"?>
<!DOCTYPE svg PUBLIC "-//W3C//DTD SVG 20010904//EN"
 "http://www.w3.org/TR/2001/REC-SVG-20010904/DTD/svg10.dtd">
<svg version="1.0" xmlns="http://www.w3.org/2000/svg"
 width="1080.000000pt" height="1080.000000pt" viewBox="0 0 1080.000000 1080.000000"
 preserveAspectRatio="xMidYMid meet">
<metadata>
Created by potrace 1.14, written by Peter Selinger 2001-2017
</metadata>
<g transform="translate(0.000000,1080.000000) scale(0.100000,-0.100000)"
fill="#000000" stroke="none">
<path d="M3649 8596 c-2 -2 -20 -6 -39 -9 -159 -25 -284 -111 -356 -246 -30
-57 -44 -95 -50 -136 -1 -11 -6 -49 -11 -85 -5 -36 -8 -93 -8 -127 1 -35 -1
-64 -4 -64 -3 -1 -186 -3 -407 -4 -220 -1 -406 -5 -412 -9 -6 -3 -13 -3 -15 1
-6 9 -149 8 -172 -1 -8 -3 -15 -2 -15 2 0 4 -27 7 -60 7 -33 0 -60 -4 -60 -8
0 -5 -4 -6 -9 -2 -8 4 -144 9 -161 5 -3 0 -113 -2 -245 -4 -132 -2 -262 -7
-290 -11 -177 -24 -363 -76 -495 -141 -185 -89 -380 -250 -504 -414 -31 -41
-60 -79 -64 -85 -22 -28 -85 -140 -107 -189 -23 -53 -94 -248 -95 -264 -1 -12
-21 -86 -27 -102 -4 -8 -7 -17 -8 -20 0 -3 -9 -31 -18 -62 -15 -51 -17 -102
-15 -425 1 -254 6 -380 14 -408 66 -218 105 -325 147 -410 28 -55 54 -101 59
-103 4 -2 8 -8 8 -13 0 -16 132 -188 186 -244 147 -151 322 -266 524 -345 47
-17 91 -34 100 -36 8 -2 42 -11 75 -20 66 -18 83 -22 134 -30 56 -9 74 -13 77
-17 4 -4 6 -150 5 -294 l-1 -71 -297 -2 c-164 -1 -431 -2 -593 -2 -319 -1
-355 -6 -404 -55 -22 -22 -25 -33 -25 -94 1 -55 5 -72 22 -92 54 -58 93 -69
260 -72 71 -2 131 -5 134 -8 2 -3 -23 -46 -56 -96 -34 -50 -59 -91 -56 -91 4
0 -3 -14 -15 -30 -12 -17 -23 -36 -24 -43 -2 -7 -6 -19 -9 -27 -87 -205 -98
-426 -33 -682 12 -46 105 -237 126 -258 3 -3 25 -31 49 -62 24 -32 70 -81 103
-110 33 -29 66 -59 74 -66 7 -6 15 -12 18 -12 3 0 25 -14 50 -30 37 -26 99
-56 201 -100 18 -8 82 -26 130 -36 130 -28 311 -24 443 10 57 15 111 31 120
36 9 5 50 25 90 45 123 59 284 194 360 303 13 17 27 32 31 32 4 0 24 -22 45
-50 39 -51 126 -143 162 -170 69 -53 94 -70 103 -70 5 0 14 -6 18 -14 4 -8 13
-16 18 -17 6 -1 37 -15 71 -30 138 -63 268 -91 414 -91 94 0 113 2 220 23 63
13 212 70 280 107 214 118 378 323 464 580 39 114 49 124 132 127 178 8 586 7
593 -1 5 -5 18 -42 30 -83 47 -156 117 -267 206 -328 44 -30 135 -61 202 -70
76 -9 1095 -9 1152 1 207 35 367 186 411 386 25 115 11 104 135 107 61 1 358
3 662 5 l551 3 26 -24 c14 -13 33 -45 42 -70 77 -215 143 -330 254 -442 151
-152 319 -236 557 -277 94 -17 230 -20 303 -7 91 16 236 61 262 81 7 6 21 14
31 17 25 9 153 94 188 125 120 107 219 232 263 337 10 22 21 47 25 55 6 13 36
107 60 189 l7 24 240 3 c131 1 265 5 297 9 124 13 220 72 267 166 27 53 31 68
35 157 2 39 6 75 8 80 2 4 2 18 0 32 -2 14 -5 369 -7 790 -2 421 -7 781 -11
800 -6 27 -78 204 -144 355 -14 30 -33 75 -111 260 -40 94 -80 188 -90 210
-10 22 -43 99 -73 170 -31 72 -66 153 -78 180 -13 28 -24 52 -24 55 -1 3 -8
21 -17 40 -8 19 -43 96 -76 170 -105 236 -122 274 -144 315 -98 184 -304 331
-518 369 -72 13 -298 20 -695 20 -320 0 -422 -3 -465 -14 -30 -8 -57 -14 -60
-15 -3 0 -32 -14 -65 -30 -84 -41 -175 -134 -219 -223 -19 -40 -32 -72 -30
-72 3 0 0 -9 -6 -19 -20 -38 -23 -122 -21 -491 6 -821 5 -2149 -1 -2156 -4 -4
-384 -7 -845 -8 l-838 -1 0 175 0 175 39 13 c22 7 53 14 70 17 17 2 43 8 59
14 15 6 27 8 27 6 0 -2 12 0 28 6 15 6 37 13 50 15 35 7 200 74 262 107 64 33
177 105 201 127 9 8 30 25 46 37 33 25 156 147 191 190 199 244 317 523 358
853 8 63 8 408 1 460 -3 19 -8 62 -12 95 -3 33 -8 67 -10 75 -2 8 -6 33 -9 55
-14 119 -88 361 -136 445 -8 14 -14 27 -15 30 0 9 -113 189 -125 200 -3 3 -22
27 -43 53 -84 104 -221 224 -353 309 -65 42 -242 124 -328 152 -74 25 -229 60
-321 73 -22 3 -446 6 -942 7 -496 1 -903 3 -906 6 -3 3 -7 57 -10 120 -3 63
-8 129 -11 145 -12 55 -52 152 -74 174 -7 8 -21 25 -29 38 -28 42 -133 115
-212 146 -70 28 -87 31 -222 34 -80 2 -147 1 -150 -1z m231 -320 c14 -2 26 -5
28 -5 1 -1 3 0 5 2 1 1 13 -8 27 -20 13 -13 27 -23 31 -23 8 0 40 -48 43 -64
1 -6 4 -15 8 -21 8 -13 3 -189 -6 -203 -5 -9 -333 -18 -480 -14 -28 1 -30 8
-32 93 -4 159 42 232 161 257 39 9 166 8 215 -2z m6013 -2010 c29 -20 54 -67
151 -286 44 -101 56 -129 56 -134 0 -3 11 -29 24 -58 87 -194 139 -327 132
-344 -6 -15 16 -14 -731 -17 -330 -1 -367 3 -449 42 -112 55 -172 166 -176
326 -4 153 -6 471 -2 481 2 8 142 11 483 11 472 0 481 0 512 -21z m-1306 -71
c0 -8 -4 -12 -9 -9 -5 3 -6 10 -3 15 9 13 12 11 12 -6z m-342 -741 c0 -20 -2
-37 -5 -39 -4 -2 -6 16 -6 40 0 52 9 51 11 -1z m0 -83 c3 -5 2 -12 -3 -15 -5
-3 -9 1 -9 9 0 17 3 19 12 6z m-7110 -410 c-9 -8 -36 -10 -30 -2 2 4 11 8 20
8 8 0 13 -3 10 -6z m4756 -400 c0 -24 0 -241 0 -283 -1 -34 -3 -37 -30 -36
-15 1 -33 -2 -40 -6 -6 -4 -11 -3 -11 2 0 4 -23 6 -50 2 -28 -4 -53 -3 -56 2
-3 5 -10 6 -15 2 -6 -3 -400 -7 -877 -10 -477 -2 -1378 -6 -2002 -8 l-1135 -6
0 168 0 167 25 3 c33 3 142 4 155 2 6 -1 12 -2 15 -1 3 1 484 4 1069 7 586 2
1066 6 1067 7 1 1 426 3 943 3 865 2 941 0 942 -15z m4199 -19 c-39 -26 -90
-83 -111 -124 -11 -21 -22 -38 -24 -38 -9 0 27 64 58 104 17 21 44 47 61 57
38 23 50 24 16 1z m-149 -274 c-7 -34 -7 -41 2 -167 7 -83 -1 -90 -10 -10 -11
93 -6 222 8 213 4 -2 4 -19 0 -36z m477 -7 c8 -1 12 -25 12 -86 l0 -85 -30 -1
c-16 0 -46 -1 -65 -1 -93 0 -85 -8 -85 86 0 80 1 85 23 88 18 2 98 2 145 -1z
m-1244 -40 c4 -5 -3 -7 -14 -4 -23 6 -26 13 -6 13 8 0 17 -4 20 -9z m43 -7
c-3 -3 -12 -4 -19 -1 -8 3 -5 6 6 6 11 1 17 -2 13 -5z m38 -22 c-3 -3 -11 0
-18 7 -9 10 -8 11 6 5 10 -3 15 -9 12 -12z m40 -12 c3 -6 -1 -7 -9 -4 -18 7
-21 14 -7 14 6 0 13 -4 16 -10z m-7995 -295 c175 -31 314 -117 433 -265 27
-34 94 -163 103 -198 44 -181 40 -310 -12 -447 -26 -67 -67 -145 -76 -145 -4
0 -8 -4 -8 -10 0 -5 -10 -22 -22 -37 -21 -24 -38 -41 -126 -120 -14 -13 -31
-23 -38 -23 -7 0 -14 -4 -16 -8 -4 -12 -126 -68 -168 -78 -19 -4 -42 -10 -50
-12 -29 -9 -241 -10 -268 -1 -183 57 -248 93 -353 199 -85 85 -153 205 -179
315 -15 62 -20 227 -8 280 4 17 10 44 13 60 3 17 26 72 51 122 34 69 63 110
112 160 74 75 107 103 122 103 6 0 10 4 10 9 0 4 30 22 68 39 83 37 113 47
192 59 19 3 36 6 37 7 5 4 149 -2 183 -9z m1665 1 c11 -2 20 -5 20 -6 0 -1 11
-4 25 -6 14 -3 53 -18 87 -34 351 -163 499 -560 341 -910 -23 -49 -85 -143
-116 -175 -50 -51 -100 -93 -106 -88 -3 4 -6 1 -6 -5 0 -12 -149 -90 -185 -96
-14 -3 -28 -7 -33 -9 -4 -3 -28 -8 -52 -12 -156 -24 -337 26 -476 131 -335
253 -373 724 -82 1017 104 104 227 169 373 197 39 7 171 5 210 -4z m-850 -6
c4 -6 -1 -13 -9 -16 -9 -3 -16 -11 -16 -18 -1 -6 -16 -28 -34 -50 l-33 -38
-34 43 c-18 24 -39 50 -46 57 -7 7 -13 17 -13 22 0 12 178 12 185 0z m6875 -4
c36 -2 77 -9 93 -15 15 -6 27 -8 27 -6 0 10 130 -52 191 -91 54 -36 124 -102
181 -172 46 -58 105 -209 114 -297 7 -59 7 -59 5 -65 -1 -3 -3 -30 -5 -60 -4
-58 -45 -192 -73 -238 -127 -209 -256 -302 -493 -359 -43 -10 -173 -8 -230 4
-139 29 -251 88 -354 187 -56 54 -124 151 -145 208 -7 18 -17 42 -21 53 -25
62 -34 116 -34 210 1 110 25 194 89 309 78 139 262 281 405 311 8 2 15 4 15 5
0 3 40 10 89 15 28 3 52 7 54 10 2 2 9 2 15 0 7 -2 41 -6 77 -9z m-973 -221
c-24 -51 -34 -55 -13 -4 13 30 25 49 31 49 2 0 -7 -20 -18 -45z m-1701 8 c-6
-6 -36 9 -36 18 0 5 9 4 20 -3 10 -7 18 -14 16 -15z m34 -18 c11 -13 10 -14
-4 -9 -9 3 -16 10 -16 15 0 13 6 11 20 -6z m128 -150 c-3 -3 -9 2 -12 12 -6
14 -5 15 5 6 7 -7 10 -15 7 -18z m-345 -105 c76 -36 99 -98 99 -267 -1 -135
-33 -195 -121 -224 -26 -9 -179 -13 -572 -13 -575 -1 -562 -2 -616 49 -20 20
-41 58 -50 95 -6 24 -6 203 0 230 9 45 24 75 48 97 55 50 58 50 631 52 523 1
538 1 581 -19z m1357 16 c0 -3 -4 -8 -10 -11 -5 -3 -10 -1 -10 4 0 6 5 11 10
11 6 0 10 -2 10 -4z"/>
</g>
</svg>
