<?xml version="1.0" encoding="UTF-8" standalone="no"?>
<svg
   viewBox="0 0 270 160"
   fill="#fff"
   version="1.1"
   id="svg4"
   sodipodi:docname="favicon.svg"
   inkscape:version="1.1.2 (08b2f3d93c, 2022-04-05)"
   xmlns:inkscape="http://www.inkscape.org/namespaces/inkscape"
   xmlns:sodipodi="http://sodipodi.sourceforge.net/DTD/sodipodi-0.dtd"
   xmlns="http://www.w3.org/2000/svg"
   xmlns:svg="http://www.w3.org/2000/svg">
  <defs
     id="defs8" />
  <sodipodi:namedview
     id="namedview6"
     pagecolor="#7a7a7a"
     bordercolor="#d8d8d8"
     borderopacity="1"
     inkscape:pageshadow="2"
     inkscape:pageopacity="0"
     inkscape:pagecheckerboard="true"
     showgrid="false"
     inkscape:zoom="2.44375"
     inkscape:cx="138.51662"
     inkscape:cy="84.092072"
     inkscape:window-width="1920"
     inkscape:window-height="1016"
     inkscape:window-x="0"
     inkscape:window-y="0"
     inkscape:window-maximized="1"
     inkscape:current-layer="svg4" />
  <path
     fill="#fff"
     d="M268.8 88.7a8.1 8.1 0 0 0 -0.5 -3.1C262.4 71.9 256.7 58.1 250.5 44.5A18.4 18.4 0 0 0 234.2 33.4c-7.3 -0.5 -14.7 0 -22 -0.3c-9.3 -0.3 -14.7 5.8 -14.6 14.5c0.4 19.3 0.3 38.6 0.3 58v3.2l-42.4 0.2v-9l2.8 -0.6C170.5 96.9 179.4 90.1 185 79C190 68.9 189.8 58 188 47.4C184.9 29.1 169.3 16.6 150.2 16.6c-12.8 0 -25.5 0.1 -38.3 0.1c-1 0 -2 -0.1 -3.1 -0.1c-0.1 -4.3 0.1 -8.3 -2.7 -11.7A13.2 13.2 0 0 0 95.5 0c-4.1 -0.1 -8 0.2 -11.4 3c-4.3 3.6 -4.5 8.6 -4.5 13.9h-3c-12.8 0.1 -25.5 0 -38.3 0.2c-14.6 0.2 -26 6.4 -33.3 19.2C2.6 40.7 1.6 45.9 0 50.7l0.1 18.3c1.2 4 2.2 8.1 4.1 11.7c6.1 11.5 16 17.9 29.1 19.8v9.2h-2.8L18 109.8H5.2c-2.1 0 -3.8 0.5 -4.9 2v3.4c2.7 3.8 7 1.8 10.6 2.7c-10.9 13.7 -6.1 29.8 4.6 37.1c10.3 7.1 25.7 6.3 35.2 -6.9c0.5 0.6 0.9 1.1 1.3 1.6a24.6 24.6 0 0 0 26.3 8.7c9.1 -2.7 14.9 -8.7 17.6 -17.8c0.3 -0.8 1 -2.2 1.6 -2.2c5.5 -0.2 10.9 -0.2 16.3 -0.2c2.6 10 5.9 12.6 16 12.5c6.6 0 13.1 -0.2 19.7 0c7.9 0.2 13.9 -4 14.6 -12.1c0 -0.2 0.2 -0.3 0.4 -0.6h2.5c9.6 0 19.2 0 28.8 -0.2c2.2 0 2.9 0.7 3.5 2.7c2.7 9.1 8.7 15 17.9 17.3c8.9 2.2 16.7 -0.1 23.4 -6.4c3.9 -3.7 6.1 -8.4 7.2 -13.8c4.1 0 8.1 0 12.1 -0.1c6 -0.1 9.2 -3.3 9.1 -9.4q-0.2 -19.8 -0.2 -39.6zM89.3 9c1.7 -1.5 7.2 -1.6 9.3 -0.3s2.5 3.5 1.8 8l-12.7 0.1C87.6 14 86.9 11.2 89.3 9zM8.7 68.6A57.9 57.9 0 0 1 8.8 48.4C11.3 34.8 22.6 25.9 36.8 25.1c3 -0.2 5.9 -0.1 9.4 -0.1v8.1c0 2.1 0.8 3.8 3.1 4.3c2.5 0.6 4.6 -1.1 4.7 -3.9s0 -5.6 0 -8.5l80.5 -0.4c0 2.8 -0.1 5.5 0.1 8.2c0.2 3 2 4.5 4.6 4.1s3.2 -2.2 3.3 -4.4c0.1 -2.6 0 -5.2 0 -7.8c20.3 -2.9 34.4 7.3 37.6 23c1.9 9.2 2.2 18.7 -2.1 27.5c-4.9 10 -13.1 15.7 -24.3 16.7c-3.5 0.3 -7.1 0.1 -11 0.1V89l-0.2 -36.7c0 -4.2 -1.3 -6.1 -4.1 -6s-3.8 1.9 -3.8 6q0.1 18.4 0.2 36.7v3.3l-80.5 0.3v-2.9q-0.1 -18.5 -0.2 -37A22.9 22.9 0 0 0 54 50.1a3.9 3.9 0 0 0 -7.6 -0.4a13.1 13.1 0 0 0 -0.2 2.9q0.1 18.5 0.2 37v2.8C27.3 95.5 11.8 85.9 8.7 68.6zM29.6 151.8a17.3 17.3 0 0 1 -17.1 -17a17.1 17.1 0 1 1 17.1 17zM50.6 121.1L48 117.8h5.1zM71.8 151.6A17.4 17.4 0 0 1 54.6 134.5a17.2 17.2 0 0 1 17 -17a17.1 17.1 0 0 1 0.3 34.1zM41.9 109.5V101l105.4 -0.5v8.5zM155.9 138.1c-0.3 2.9 -1.7 4.6 -4.7 4.7q-12.3 0.2 -24.7 0.1c-3 0 -4.6 -1.7 -4.8 -4.8a21.3 21.3 0 0 1 0 -3.7c0.3 -3.1 1.8 -4.6 4.9 -4.6c4.1 -0.1 8.2 -0.1 12.3 -0.1c3.9 0 7.9 -0.1 11.8 0c3.3 0 4.8 1.5 5.1 4.7a20.3 20.3 0 0 1 0 3.6zM203.1 118.8a68.7 68.7 0 0 0 -3.8 7.1c-1.6 4.1 -1.5 4.1 -6 4.2c-9.2 0 -18.4 0 -27.5 0.2a3.4 3.4 0 0 1 -3.7 -2.1a11.2 11.2 0 0 0 -10.2 -6.3q-13.1 -0.1 -26.2 0.1c-4.8 0.1 -8.2 2.6 -10.5 6.7a3.6 3.6 0 0 1 -2.5 1.7c-4.9 0.2 -9.8 0.2 -14.7 0.1a2.9 2.9 0 0 1 -2.1 -1.3c-1.8 -3.8 -3.4 -7.7 -5.1 -11.7l113.4 -0.5c-0.4 0.7 -0.8 1.3 -1.1 1.8zM248.2 59c2.9 6.3 5.6 12.8 8.3 19.2a4.1 4.1 0 0 1 0 1.1h-5.5c-6.2 0 -12.4 0.1 -18.6 0.1c-6.7 0 -10 -3.3 -10 -9.9V57.8h6.4c5.7 0 11.3 -0.1 17 0a3.2 3.2 0 0 1 2.4 1.2zM223.2 150.9A17.2 17.2 0 0 1 206 133.8a17.1 17.1 0 0 1 34.1 -0.1a17.3 17.3 0 0 1 -16.9 17.2zM261 89.9c-0.1 3.3 0 6.6 0 10.3c-4 0.2 -8.3 -0.5 -11 3.4c-2.1 3 -1.6 6.4 -1.4 9.6c0.3 5.1 3.3 6.9 12.6 7.7v8.5l-12.5 0.1c-2.4 -4.3 -4.2 -8.7 -7.1 -12.2c-5 -6.1 -11.9 -8.6 -19.7 -8.5c-5.2 0.1 -10.4 0 -16 0.1v-3.1q-0.1 -29.1 -0.3 -58.2c0 -5.2 1.3 -6.6 6.4 -6.6c6.4 0 12.8 -0.1 19.1 -0.1s11.1 3.2 12.9 8.9l-21.7 0.1c-7.5 0 -7.8 0.4 -7.8 7.9V69c0.1 11.5 6.8 18.2 18.3 18.2c8.4 0 16.8 0 25.2 -0.2c2.3 0 3 0.7 2.9 2.9zM260.8 108.4v4.4h-4.5v-4.4z"
     id="path2" />
  <path
     style="fill:#ffffff;stroke-width:4.62965"
     d="M 32.740809,92.000277 C 26.398472,90.852343 20.824729,87.872098 16.626297,83.383964 10.598262,76.939974 8.4113384,70.379098 8.4113384,58.738691 c 0,-11.537477 2.2848146,-18.415939 8.0817916,-24.330331 5.986711,-6.107968 12.044525,-8.532975 22.64766,-9.066095 l 6.866362,-0.345237 v 5.254702 c 0,4.987459 0.07755,5.315703 1.52481,6.454119 1.924843,1.514082 3.932031,1.529637 5.419666,0.042 0.985944,-0.985944 1.157413,-1.929021 1.157413,-6.365769 v -5.208357 h 38.122278 c 20.967251,0 38.936081,-0.162761 39.930741,-0.361692 l 1.80845,-0.361691 0.0252,3.110546 c 0.0368,4.541328 0.8664,8.137756 2.08743,9.049279 1.17277,0.875498 4.59397,0.605249 5.64996,-0.446304 0.34573,-0.344305 0.75883,-3.023043 0.91798,-5.952751 l 0.28935,-5.32674 5.31601,-0.165903 c 16.5546,-0.51664 28.78961,8.883728 31.7288,24.377799 1.12033,5.905829 1.10878,15.390345 -0.024,19.739517 -1.30239,5.000205 -4.64987,10.936531 -8.12891,14.415569 -5.81588,5.815877 -12.93179,8.449731 -22.87011,8.465044 l -5.55239,0.0086 -0.37725,-8.246565 c -0.20749,-4.535611 -0.37821,-14.057982 -0.37937,-21.160825 -0.002,-12.639866 -0.26111,-14.726762 -1.96955,-15.867517 -1.21532,-0.811487 -3.82581,-0.436715 -4.97705,0.714521 -1.1168,1.116802 -1.15741,1.929021 -1.15741,23.148252 V 92.303658 H 94.618483 54.687747 l -0.03578,-17.79522 C 54.60988,53.57369 54.241405,48.537044 52.667753,47.386362 c -1.64381,-1.201984 -3.986375,-0.968312 -5.402312,0.538884 -1.245168,1.325421 -1.258289,1.562945 -1.258289,22.778291 v 21.438904 l -3.038208,0.364933 c -3.970963,0.476964 -5.100643,0.420956 -10.228135,-0.507097 z"
     id="path862" />
  <path
     style="fill:#ffffff;stroke-width:4.62965"
     d=""
     id="path901" />
  <path
     style="fill:#ffffff;stroke-width:4.62965"
     d="m 97.102791,129.56056 c -0.702504,-0.59827 -2.292999,-3.45595 -3.534432,-6.35041 l -2.25715,-5.26266 55.823001,-0.41586 c 30.70265,-0.22872 55.96317,-0.27568 56.1345,-0.10436 0.17132,0.17132 0.0257,0.65587 -0.32364,1.07678 -0.34932,0.42091 -1.68418,2.88969 -2.96636,5.48618 -1.28218,2.59649 -2.83928,4.99279 -3.46023,5.32511 -0.70469,0.37714 -7.01571,0.60423 -16.79212,0.60423 -14.19697,0 -15.74531,-0.0948 -16.54113,-1.01274 -0.4829,-0.557 -1.71581,-2.02809 -2.73981,-3.26908 -3.05131,-3.69793 -3.73031,-3.82007 -21.23625,-3.82007 -18.26514,0 -18.76098,0.10795 -23.07243,5.0232 l -2.7653,3.15255 -7.49568,0.32745 c -6.777983,0.29609 -7.617984,0.22329 -8.772969,-0.76032 z"
     id="path940" />
  <path
     style="fill:#ffffff;stroke-width:4.62965"
     d="m 248.70768,128.61748 c -0.31191,-0.39786 -1.56562,-2.64508 -2.78603,-4.99381 -4.16764,-8.02083 -10.05068,-12.88198 -17.50582,-14.46504 -1.68668,-0.35816 -7.31301,-0.6512 -12.50296,-0.6512 h -9.43628 l -0.42282,-30.546949 c -0.23256,-16.800824 -0.23855,-31.529239 -0.0133,-32.72981 0.71303,-3.800758 1.30839,-3.937561 16.27263,-3.739127 11.65099,0.1545 13.48599,0.307149 15.45779,1.2859 2.01401,0.999701 5.57514,4.966393 5.57514,6.210068 0,0.270533 -5.40539,0.491878 -12.01198,0.491878 -11.82275,0 -15.51963,0.420566 -16.43976,1.870222 -0.86344,1.360345 -0.56512,21.372074 0.3653,24.505141 1.34202,4.519087 3.87109,7.455653 8.29445,9.630896 l 3.86163,1.899005 h 15.92239 c 8.75731,0 16.24791,0.210682 16.64577,0.468183 0.49764,0.322076 0.72339,2.237779 0.72339,6.138653 v 5.67047 l -3.41164,0.35659 c -4.3693,0.45668 -6.19134,1.30889 -7.53557,3.52457 -1.53995,2.53828 -1.95097,5.08639 -1.47793,9.16219 0.62145,5.35444 2.55224,6.90129 10.25499,8.21577 l 2.17015,0.37034 v 4.02472 4.02472 h -5.71621 c -3.8847,0 -5.89791,-0.23178 -6.28331,-0.72338 z"
     id="path979" />
  <path
     style="fill:#ffffff;stroke-width:0.409207"
     d="m 85.345269,25.018736 v -0.12193 l 1.803069,-0.0305 c 0.991688,-0.01677 5.163683,-0.04297 9.271099,-0.05822 4.107413,-0.01525 11.749363,-0.04931 16.982093,-0.07571 21.6264,-0.109088 19.49815,-0.10899 18.97699,-8.75e-4 -0.35564,0.07378 -0.8676,0.107859 -2.25064,0.14983 -4.77044,0.144767 -19.9398,0.257903 -34.693097,0.258749 l -10.089514,5.78e-4 z"
     id="path1135" />
  <path
     style="fill:#ffffff;stroke-width:0.409207"
     d="m 134.48502,32.774792 c -0.33178,-1.751663 -0.486,-4.038025 -0.49338,-7.314434 l -0.002,-0.831202 h 0.22444 0.22444 l 0.028,3.59335 c 0.0154,1.976343 0.0523,3.902394 0.082,4.280113 0.0297,0.37772 0.0466,0.694151 0.0376,0.703181 -0.009,0.009 -0.0546,-0.184923 -0.10117,-0.431008 z"
     id="path1174" />
  <path
     style="fill:#ffffff;stroke-width:0.289353"
     d="m 142.54697,27.9109 c -0.0161,-1.737118 -0.0194,-3.168276 -0.007,-3.180351 0.0296,-0.02957 1.09834,-0.167783 2.0103,-0.259966 4.22966,-0.427543 8.17659,-0.289933 11.94879,0.416594 3.16768,0.593302 6.10037,1.587253 8.83038,2.992805 l 0.65105,0.335192 0.0106,0.261924 0.0106,0.261925 -0.3,-0.166686 c -0.16501,-0.09168 -0.66622,-0.348867 -1.11382,-0.571533 -4.39565,-2.186727 -9.48747,-3.313965 -14.97481,-3.315161 -0.83456,-1.82e-4 -6.65399,0.168242 -6.67905,0.193303 -0.006,0.0058 -0.0764,1.221894 -0.15698,2.702542 -0.0806,1.480647 -0.1587,2.871124 -0.17358,3.089947 -0.0172,0.252225 -0.0378,-0.758254 -0.0563,-2.760535 z"
     id="path1213" />
  <path
     style="fill:#ffffff;stroke-width:0.289353"
     d="m 137.73911,37.091673 c -0.65886,-0.06342 -1.20804,-0.218538 -1.54953,-0.437667 -0.33765,-0.216673 -0.68343,-0.684144 -0.96059,-1.298667 -0.1834,-0.406657 -0.20395,-0.545375 -0.0341,-0.230291 0.50508,0.936972 1.2936,1.531998 2.353,1.775601 0.40381,0.09285 1.34116,0.08371 1.8499,-0.01804 1.29063,-0.258137 2.13326,-0.85999 2.60152,-1.858157 0.1485,-0.316545 0.1549,-0.281009 0.04,0.222381 -0.10655,0.4669 -0.21592,0.763694 -0.33247,0.902207 -0.30425,0.361575 -1.26366,0.737294 -2.26194,0.885801 -0.45316,0.06741 -1.30205,0.0957 -1.70581,0.05683 z"
     id="path1252" />
  <path
     style="fill:#ffffff;stroke-width:0.409207"
     d="m 180.70978,63.695652 c 0.26,-4.367646 0.11605,-8.916744 -0.4034,-12.748285 -0.74133,-5.468059 -2.64778,-10.381095 -5.61756,-14.476779 -1.55843,-2.149263 -3.46408,-4.087308 -5.63511,-5.73092 -0.72667,-0.550134 -2.0947,-1.464898 -2.67435,-1.788261 l -0.36676,-0.204604 -0.001,-0.247369 -10e-4,-0.247369 0.34527,0.191776 c 2.06579,1.147425 4.20185,2.775069 5.97187,4.550471 3.00748,3.016637 5.26241,6.663227 6.67648,10.796938 0.66047,1.930751 1.16329,4.078141 1.63347,6.976013 0.53265,3.282966 0.73981,5.734195 0.7392,8.746804 -3.5e-4,1.84172 -0.0375,2.678495 -0.18428,4.15601 l -0.0597,0.601023 h -0.2285 -0.2285 z"
     id="path1291" />
  <path
     style="fill:#ffffff;stroke-width:0.409207"
     d="m 144.77795,92.011387 -2.02512,-0.01766 -0.0336,-4.590212 c -0.0185,-2.524618 -0.0418,-7.893283 -0.0517,-11.930367 -0.01,-4.037085 -0.0111,-6.925831 -0.003,-6.419437 0.009,0.506393 0.0402,2.40537 0.0705,4.219948 0.0598,3.589538 0.12651,6.323738 0.20578,8.439898 0.0887,2.368761 0.41235,9.582116 0.44003,9.808184 l 0.0266,0.217392 3.36004,-1.54e-4 c 1.84802,-6.4e-5 3.85492,-0.02378 4.45978,-0.0527 7.95561,-0.380293 13.82598,-2.501874 18.92583,-6.839888 0.79699,-0.677933 2.44861,-2.324949 3.01336,-3.00496 3.52709,-4.246948 6.39065,-10.086177 7.13652,-14.552429 0.14565,-0.872158 0.33606,-2.458843 0.33606,-2.800444 V 64.2711 h 0.23678 0.23679 l -0.0357,0.370844 c -0.0562,0.583501 -0.36161,2.346736 -0.56195,3.243812 -0.88512,3.963346 -2.46887,7.6927 -4.72098,11.116802 -2.35288,3.577315 -5.16598,6.387658 -8.49141,8.483066 -4.11281,2.591555 -8.87063,4.053293 -14.51521,4.459488 -0.84399,0.06074 -4.84699,0.09386 -8.00977,0.06628 z"
     id="path1330" />
  <path
     style="fill:#ffffff;stroke-width:0.289353"
     d="m 134.96692,48.771936 c -0.004,-0.131697 0.15908,-0.686345 0.27072,-0.920157 0.45675,-0.956585 1.7018,-1.64412 3.24899,-1.794137 0.76266,-0.07395 1.49114,0.04141 2.02991,0.321454 0.39038,0.202914 0.89486,0.724047 1.11049,1.14716 0.16607,0.325869 0.35702,0.84229 0.35259,0.953555 -0.001,0.03255 -0.0585,-0.06137 -0.12703,-0.208719 -0.38826,-0.834278 -1.03839,-1.471099 -1.78983,-1.753168 -0.80488,-0.302127 -2.07846,-0.311153 -2.96915,-0.02104 -0.9729,0.316886 -1.61813,0.973765 -2.02367,2.060194 -0.0557,0.149198 -0.10205,0.245884 -0.10302,0.214858 z"
     id="path1369" />
  <path
     style="fill:#ffffff;stroke-width:0.204604"
     d="m 134.56522,80.076726 c 0,-12.195225 7e-5,-12.212276 0.0511,-12.212276 0.0281,0 0.0516,0.0029 0.0521,0.0064 0.005,0.03205 0.12578,22.228121 0.12627,23.171356 l 6.5e-4,1.246803 h -0.11509 -0.11509 z"
     id="path1408" />
  <path
     style="fill:#ffffff;stroke-width:0.409207"
     d="M 54.327705,89.168798 C 54.279859,84.169325 54.133462,54.54298 54.15248,53.70844 l 0.01632,-0.716113 0.06481,0.971867 c 0.282916,4.242585 0.357162,8.981708 0.403288,25.741688 l 0.03481,12.647059 20.46466,0.008 c 11.255564,0.0044 19.762615,0.02574 18.904559,0.04739 -1.314895,0.03318 -31.571427,0.153787 -37.704843,0.150302 l -1.975942,-0.0011 z"
     id="path1447" />
  <path
     style="fill:#ffffff;stroke-width:0.409207"
     d="m 46.675192,48.822301 c 0,-0.12612 0.348461,-0.604881 0.685739,-0.94216 0.812255,-0.812254 1.85,-1.234632 2.997125,-1.219873 1.210179,0.01557 2.358266,0.575106 2.813839,1.371366 0.0841,0.146995 0.152926,0.28748 0.152942,0.312188 1.6e-5,0.02471 -0.204321,-0.154078 -0.454082,-0.397304 -0.368052,-0.358421 -0.544969,-0.486853 -0.933533,-0.677695 -0.67325,-0.330665 -1.014971,-0.409525 -1.783769,-0.411644 -0.75417,-0.0021 -1.209979,0.106416 -1.853406,0.441164 -0.483434,0.251509 -1.084106,0.794752 -1.400867,1.266932 -0.123193,0.183639 -0.223988,0.2993 -0.223988,0.257026 z"
     id="path1486" />
  <path
     style="fill:#ffffff;stroke-width:0.409207"
     d="M 37.640982,92.915146 C 30.08248,92.535704 23.599409,90.141009 18.385909,85.80277 17.552242,85.109062 15.791437,83.345443 15.096642,82.508246 13.878469,81.040403 12.879098,79.582459 11.998568,77.988589 l -0.263454,-0.476884 0.0148,-0.418257 0.0148,-0.418256 0.294079,0.54801 c 1.600596,2.982675 4.282887,6.230364 7.060621,8.54892 3.554755,2.967132 7.872382,5.034123 12.670875,6.06597 0.708604,0.152374 3.230996,0.592302 4.092072,0.713693 1.534334,0.216305 1.812364,0.235941 3.324808,0.234826 1.623001,-0.0012 1.692819,-0.0068 4.987212,-0.39936 l 1.790282,-0.213338 0.03085,-17.41688 c 0.02793,-15.769792 0.06504,-21.634713 0.136437,-21.563317 0.02642,0.02642 0.210531,31.18082 0.214208,36.247105 l 0.0021,2.944656 -0.984654,0.136283 c -2.56921,0.355594 -5.514524,0.505239 -7.74265,0.393386 z"
     id="path1525" />
  <path
     style="fill:#ffffff;stroke-width:0.289353"
     d="M 9.9882834,73.468576 C 8.8644401,70.277191 8.1883056,66.296191 7.9349922,61.379039 c -0.055247,-1.072426 -0.05562,-4.100565 -6.358e-4,-5.172188 0.1484632,-2.893517 0.4798886,-5.733966 0.9474435,-8.119973 0.994841,-5.076831 3.2259121,-9.582636 6.5816771,-13.292161 0.509241,-0.562925 1.568696,-1.617632 2.096643,-2.087248 3.265729,-2.90491 7.31386,-5.091979 11.735748,-6.34043 1.397885,-0.39467 1.306749,-0.38006 2.340604,-0.375233 0.699307,0.0033 0.873013,0.01253 0.734913,0.03921 -0.09946,0.01921 -0.538921,0.105734 -0.976567,0.192266 -5.966272,1.179657 -10.481146,3.647216 -14.865519,8.124599 -4.170215,4.258682 -6.423936,8.805797 -7.4638878,15.05917 -0.2806234,1.687427 -0.4513485,3.309905 -0.5861079,5.570048 -0.060876,1.020994 -0.085111,5.292989 -0.037242,6.5647 0.1805721,4.797139 0.7916744,8.600397 1.8840067,11.725303 0.09958,0.284875 0.181057,0.53016 0.181061,0.545079 4e-6,0.01492 -0.08736,0.02713 -0.194142,0.02713 h -0.19415 z"
     id="path1564" />
  <path
     style="fill:#ffffff;stroke-width:0.578706"
     d=""
     id="path1603" />
  <path
     style="fill:#ffffff;stroke-width:0.578706"
     d="m 31.792678,25.939941 -0.614875,-0.04283 1.048905,-0.198731 c 2.584839,-0.489735 4.493408,-0.630985 9.042286,-0.669204 l 3.436069,-0.02887 -3.146716,0.17069 c -4.499722,0.244081 -6.027565,0.369728 -7.993381,0.657359 -1.064504,0.155755 -1.103261,0.158195 -1.772288,0.111589 z"
     id="path1642" />
  <path
     style="fill:#ffffff;stroke-width:0.204604"
     d="m 49.974821,37.809521 c -0.81084,-0.10387 -1.692643,-0.522895 -2.557941,-1.215512 -1.087969,-0.870851 -1.284947,-1.391233 -1.368172,-3.614469 -0.01395,-0.372762 -0.02544,-2.320652 -0.02553,-4.328645 L 46.023018,25 h 0.0755 0.0755 l 0.0096,4.341432 c 0.01014,4.568933 0.0077,4.467365 0.119807,5.044757 0.204957,1.055909 0.730692,1.899437 1.505193,2.415043 0.713675,0.475113 1.750486,0.76041 2.626125,0.722625 1.318828,-0.05691 2.379798,-0.723979 3.037912,-1.910046 0.216244,-0.389718 0.419665,-1.031817 0.489504,-1.545114 0.04812,-0.353655 0.04943,-0.156171 0.0017,0.252076 -0.152794,1.306193 -0.486135,1.988555 -1.302814,2.666913 -0.80363,0.667519 -1.714785,0.94628 -2.68624,0.821835 z"
     id="path1681" />
  <path
     style="fill:#ffffff;stroke-width:0.289353"
     d="m 11.352001,76.732841 c -0.42417,-0.858661 -0.721347,-1.532756 -0.988608,-2.242487 -0.05618,-0.149198 -0.136105,-0.356718 -0.177606,-0.461157 l -0.07545,-0.189888 h 0.208774 0.208774 l 0.193795,0.497326 c 0.234374,0.601459 0.53517,1.287193 0.821041,1.871753 l 0.212256,0.43403 -0.01835,0.415945 -0.01835,0.415945 z"
     id="path1720" />
  <path
     style="fill:#ffffff;stroke-width:0.144677"
     d="m 60.031738,25.076385 v -0.0883 l 0.745989,-0.01077 c 0.410294,-0.0059 6.056071,-0.03537 12.546172,-0.06544 6.490101,-0.03007 12.455297,-0.05802 13.255992,-0.06212 l 1.455808,-0.0074 -1.112202,0.01596 c -0.61171,0.0088 -1.22003,0.02111 -1.351821,0.0274 l -0.239621,0.01144 v 0.124667 0.124666 l 2.17467,0.0047 c 1.196068,0.0026 -4.496503,0.0067 -12.650159,0.0091 l -14.824828,0.0044 z"
     id="path1759" />
  <path
     style="fill:#ffffff;stroke-width:0.204604"
     d="m 54.049755,31.611253 c 0.0053,-0.970588 -0.0025,-2.851968 -0.0174,-4.180843 -0.01486,-1.328876 -0.02476,-2.418048 -0.02201,-2.420383 0.0028,-0.0023 1.35443,-0.009 3.003727,-0.0148 l 2.998721,-0.01055 v 0.08439 0.08439 H 57.062129 54.11147 l -0.01803,3.778772 c -0.0099,2.078325 -0.02596,3.928389 -0.03566,4.111253 -0.0097,0.182865 -0.01331,-0.461637 -0.008,-1.432225 z"
     id="path1798" />
  <path
     style="fill:#ffffff;stroke-width:0.0511509"
     d="m 46.036824,57.744565 c 0.0012,-0.120444 0.0052,-0.513906 0.0087,-0.87436 0.02161,-2.187537 0.06103,-3.776018 0.121864,-4.910486 0.0215,-0.400868 0.02281,-0.407071 0.01964,-0.09274 -0.0017,0.165266 3.84e-4,0.435727 0.0046,0.601023 0.0042,0.165296 0.0133,1.414029 0.0203,2.774963 0.01555,3.024408 0.0155,2.720588 4.81e-4,2.720588 -0.01155,0 -0.01219,-0.01169 -0.01591,-0.289322 -0.0021,-0.159127 -0.0054,-0.533888 -0.0073,-0.832801 -0.0097,-1.527611 -0.02755,-3.488802 -0.03253,-3.582771 -0.0021,-0.0399 -0.0063,-0.07011 -0.0092,-0.06713 -0.02596,0.02616 -0.04586,0.796001 -0.06367,2.463845 -0.006,0.55707 -0.019,2.091287 -0.0191,2.245844 -3.9e-5,0.06114 -3.3e-4,0.06234 -0.01504,0.06234 h -0.015 z"
     id="path1837" />
  <path
     style="fill:#ffffff;stroke-width:0.409207"
     d="m 205.78561,73.158568 c -0.13898,-18.684845 -0.16305,-26.654389 -0.0829,-27.455243 0.1635,-1.63444 0.55493,-2.668357 1.27811,-3.375959 0.69605,-0.681053 1.52605,-1.009618 3.0448,-1.205314 0.44612,-0.05748 2.19948,-0.08383 8.46547,-0.127222 4.34655,-0.0301 9.35294,-0.04573 11.12532,-0.03473 2.97062,0.01843 3.27448,0.02838 3.88747,0.127361 1.69109,0.273057 2.9796,0.668945 4.26173,1.309391 1.24823,0.623514 2.0562,1.207634 3.08492,2.230248 1.04389,1.037687 1.768,2.049153 2.38171,3.326865 0.21037,0.437998 0.61604,1.432307 0.70433,1.726343 l 0.0346,0.115089 -3.28989,0.0012 c -4.98505,0.0018 -20.65195,0.09347 -21.32059,0.124775 -0.82547,0.03865 -0.64593,-0.0035 0.40921,-0.09607 2.44489,-0.214504 4.69512,-0.277654 12.04604,-0.338063 3.31969,-0.02728 6.61125,-0.07202 7.31458,-0.09941 2.30263,-0.08969 3.81984,-0.20502 4.10038,-0.31168 0.18818,-0.07154 0.156,-0.322854 -0.10913,-0.852487 -0.73221,-1.462666 -2.94635,-3.87671 -4.61144,-5.027783 -1.35264,-0.935082 -2.81243,-1.288751 -6.10616,-1.479363 -2.16937,-0.125544 -7.23771,-0.230254 -14.01534,-0.289551 -9.64678,-0.0844 -11.3446,0.265467 -12.06453,2.486106 -0.18689,0.576483 -0.31977,1.330103 -0.36977,2.097186 -0.12816,1.965825 -0.10586,18.623358 0.0389,29.092072 0.0333,2.409793 0.0331,2.41688 -0.071,2.41688 -0.10401,0 -0.1045,-0.01566 -0.13682,-4.360614 z"
     id="path1876" />
  <path
     style="fill:#ffffff;stroke-width:0.409207"
     d="m 214.60979,53.248082 c -0.006,-0.342415 0.12487,-1.303507 0.22269,-1.640011 0.11095,-0.38163 0.42619,-0.681656 1.01951,-0.970289 0.53869,-0.262058 0.77166,-0.307897 0.31169,-0.06133 -0.35968,0.19281 -0.7647,0.578821 -0.96007,0.915005 -0.18854,0.324427 -0.43102,1.066303 -0.51789,1.584534 -0.0655,0.390823 -0.0721,0.405714 -0.0759,0.17209 z"
     id="path1915" />
  <path
     style="fill:#ffffff;stroke-width:0.818414"
     d="m 205.94123,101.99488 c -0.10327,-10.490609 -0.11972,-24.500833 -0.0286,-24.409714 0.071,0.07105 0.47366,24.685004 0.47922,29.294634 l 0.002,1.71355 7.13555,0.0125 c 3.92455,0.007 7.78005,0.0447 8.56778,0.084 0.85476,0.0427 -2.09987,0.0892 -7.32813,0.11539 l -8.76035,0.0439 z"
     id="path1954" />
  <path
     style="fill:#ffffff;stroke-width:0.818414"
     d="m 255.80563,100.27903 c 0.0281,-0.031 0.99488,-0.15258 2.14833,-0.27017 1.15346,-0.117591 2.25054,-0.23953 2.43798,-0.270977 l 0.34078,-0.05718 -0.0484,-5.03217 c -0.0302,-3.140421 -0.0922,-5.257527 -0.16494,-5.631635 -0.13452,-0.692004 -0.34172,-1.140009 -0.56728,-1.226564 -0.72625,-0.278689 -9.81455,-0.46954 -22.81655,-0.47914 l -9.82097,-0.0073 -1.27877,-0.654331 c -0.70333,-0.359882 -1.23994,-0.656722 -1.19247,-0.659646 0.0475,-0.0029 0.53085,0.131142 1.07417,0.297923 0.54333,0.166781 1.44822,0.394882 2.01088,0.506892 2.2149,0.440924 2.68073,0.451266 16.46849,0.365641 7.2032,-0.04473 13.4563,-0.07703 13.89577,-0.07178 1.32201,0.01581 1.99215,0.339104 2.35726,1.137221 0.20867,0.456131 0.21602,0.63702 0.25276,6.22426 l 0.0378,5.754476 -1.72346,6.2e-4 c -0.9479,3e-4 -2.11476,0.0298 -2.59302,0.0654 -0.47826,0.0356 -0.84655,0.0394 -0.81841,0.008 z"
     id="path1993" />
  <path
     style="fill:#ffffff;stroke-width:0.818414"
     d="m 155.38268,140.33248 c 0.49175,-0.95433 0.68733,-3.31875 0.47041,-5.68692 -0.2498,-2.72721 -1.05456,-4.01508 -2.92715,-4.68437 -0.92432,-0.33038 -3.65156,-0.3786 -16.1996,-0.28646 -9.52961,0.07 -11.19064,0.10412 -11.74235,0.24132 -0.83084,0.20661 -1.36703,0.48496 -1.92511,0.99939 l -0.45018,0.41496 v -4.40347 -4.40348 l 0.28133,-0.11144 0.28133,-0.11145 -0.28133,0.0537 -0.28133,0.0537 v -2.29275 -2.29274 l 1.7647,-0.0607 c 6.88267,-0.23659 78.62586,-0.42983 78.8435,-0.21238 0.11851,0.11841 -0.0177,0.40617 -0.85681,1.81087 -0.27741,0.46435 -1.15725,2.11324 -1.95521,3.66419 -1.88881,3.67119 -3.17566,5.73101 -3.85683,6.17351 -0.65102,0.4229 -4.2062,0.57193 -15.26928,0.6401 -12.55725,0.0774 -16.73939,-0.0764 -17.64156,-0.64861 -0.16214,-0.10283 -1.14264,-1.19976 -2.17889,-2.43761 -1.03624,-1.23785 -2.14783,-2.49147 -2.4702,-2.78582 -0.75489,-0.68928 -2.00982,-1.30483 -3.18249,-1.56103 -1.17647,-0.25703 -1.54113,-0.25125 -0.62485,0.01 2.79714,0.79723 5.48118,3.04991 6.81294,5.71801 0.50453,1.01082 0.93427,1.47741 1.71481,1.86192 0.65401,0.32216 0.73677,0.33724 1.81319,0.33029 22.9983,-0.14851 30.3229,-0.23719 30.84657,-0.37343 1.22905,-0.31978 1.62183,-0.72397 2.31257,-2.37979 1.28803,-3.08761 2.48462,-5.42538 4.4412,-8.67673 l 1.12051,-1.86202 -1.76323,-0.033 c -1.57025,-0.0294 -17.54251,0.0327 -65.26706,0.25368 l -14.60358,0.0676 v -4.04127 -4.04127 l 1.4578,-0.0667 c 0.80179,-0.0367 5.95072,-0.0669 11.44208,-0.0671 5.49136,-2e-4 10.40568,-0.0303 10.92072,-0.0668 l 0.93643,-0.0665 v -4.25884 -4.25885 l -5.85678,0.0285 c -3.22123,0.0156 -8.79156,0.0415 -12.37852,0.0574 l -6.52173,0.029 V 96.515819 92.46263 l 2.99232,-0.06744 c 1.64578,-0.03709 4.41425,-0.06753 6.15215,-0.06763 l 3.15982,-1.88e-4 -0.0649,-5.907929 c -0.0357,-3.24936 -0.0996,-12.329923 -0.14192,-20.179028 -0.0512,-9.479781 -0.0982,-13.206362 -0.14018,-11.099744 -0.0347,1.744246 -0.0693,10.80179 -0.0767,20.127877 l -0.0136,16.956522 h -5.9335 -5.9335 V 58.670077 c 0,-18.455243 0.0115,-33.55597 0.0256,-33.557171 0.0141,-0.0012 2.14322,-0.04926 4.73146,-0.106799 3.23519,-0.07192 4.89771,-0.147891 5.31969,-0.243088 0.54477,-0.122897 0.0126,-0.139652 -4.73146,-0.148955 l -5.34526,-0.01048 v -3.925095 -3.925094 l 14.09207,-0.07306 c 16.13292,-0.08365 16.87381,-0.06181 20.77445,0.612263 13.67298,2.362836 24.63779,11.539394 28.96602,24.241935 1.1518,3.380331 1.83985,7.025114 2.42366,12.838875 0.2525,2.514528 0.25438,8.397643 0.003,10.639386 -0.68776,6.142816 -2.27656,11.197978 -5.03511,16.02048 -3.54688,6.200641 -8.35969,11.015593 -14.2424,14.248761 -3.44877,1.895454 -6.95528,3.133085 -11.81536,4.170251 l -2.32688,0.496569 -5.1e-4,4.539105 -5.1e-4,4.5391 20.94629,-0.0689 c 11.52046,-0.0379 21.07201,-0.0929 21.22568,-0.12225 l 0.27938,-0.0533 0.0346,-4.87721 c 0.0611,-8.610647 -0.0291,-37.206814 -0.14857,-47.113649 -0.0637,-5.281191 -0.0894,-10.137968 -0.0571,-10.792839 0.17249,-3.497607 1.57602,-6.847175 3.8017,-9.07286 2.32677,-2.326768 5.66242,-3.65891 9.36557,-3.740277 2.90447,-0.06382 17.80342,0.02266 20.20251,0.117266 4.69667,0.185203 6.02587,0.359993 8.2806,1.088899 1.4217,0.459602 3.60893,1.568594 4.85832,2.463311 2.34389,1.678507 4.44828,4.119574 5.7155,6.629941 0.81501,1.614519 5.54482,12.320951 8.90022,20.146578 6.32007,14.740022 9.54889,22.385625 9.69907,22.966752 0.1565,0.605481 0.1802,2.463093 0.26503,20.767268 0.0512,11.05626 0.0728,20.81586 0.0479,21.68798 -0.0546,1.91176 -0.25483,2.78877 -0.95772,4.19437 -0.87318,1.74615 -2.38277,3.00113 -4.37672,3.63854 -1.61986,0.51782 -2.27153,0.56195 -9.26576,0.62759 l -6.50318,0.061 -0.2731,1.13566 c -0.15021,0.62462 -0.32185,1.3083 -0.38143,1.5193 l -0.10831,0.38363 h -4.13842 c -2.27613,0 -4.13841,-0.0126 -4.13841,-0.0279 0,-0.0154 0.13793,-0.38611 0.30651,-0.82393 0.33781,-0.87726 0.72833,-2.36229 0.93281,-3.54714 0.21149,-1.22551 0.16612,-3.34296 -0.0981,-4.5779 -2.12398,-9.9271 -11.97598,-15.84396 -21.67476,-13.01731 -6.00411,1.74987 -10.50967,6.62605 -11.91204,12.89191 -0.19796,0.8845 -0.23936,1.35736 -0.23709,2.70842 0.003,1.89628 0.23588,3.30002 0.82962,5.00468 0.19753,0.56711 0.38415,1.11169 0.41471,1.21015 0.0523,0.16839 -0.18126,0.17903 -3.92995,0.17903 H 199.367 l -0.13001,-0.43478 c -0.32834,-1.09798 -0.86073,-1.79925 -1.6415,-2.16225 -0.55471,-0.2579 0.81657,-0.24904 -18.84847,-0.12174 -13.7031,0.0887 -14.30312,0.10038 -14.46691,0.28137 -0.10151,0.11216 -0.22452,0.55184 -0.30298,1.08294 -0.0727,0.49175 -0.15805,0.99768 -0.18977,1.12428 l -0.0577,0.23018 h -4.24621 -4.2462 l 0.14497,-0.28133 z m 102.79257,-10.86956 h 3.05237 v -4.29205 -4.29204 l -0.33248,-0.0476 c -0.18286,-0.0262 -1.13811,-0.14448 -2.12276,-0.26287 -3.00977,-0.36191 -4.95828,-0.84099 -6.54732,-1.60979 -0.7882,-0.38135 -1.11871,-0.61737 -1.74889,-1.24892 -1.32781,-1.33069 -1.63485,-2.22832 -1.89349,-5.53574 -0.30058,-3.84379 -0.0222,-5.95983 1.02839,-7.81582 1.08643,-1.91939 2.63967,-3.11449 4.71118,-3.6249 1.24229,-0.30609 1.64858,-0.34711 4.19437,-0.42339 l 2.35295,-0.0705 -1.89259,-0.0298 -1.89258,-0.0298 1.84143,-0.217763 1.84143,-0.217761 -0.0371,-4.501279 c -0.0204,-2.475704 -0.055,-4.520461 -0.0767,-4.543905 -0.0218,-0.02344 -0.0396,1.966727 -0.0396,4.422604 v 4.465229 l -0.23018,0.04942 c -0.1266,0.02718 -1.16443,0.14399 -2.30628,0.259573 -3.62795,0.367232 -5.32898,0.812622 -6.6519,1.741672 -1.45558,1.02221 -2.67119,3.17385 -3.1569,5.58777 -0.24098,1.19765 -0.23922,4.09679 0.003,5.78041 0.7244,5.02449 2.50334,6.49836 9.42614,7.80967 1.01279,0.19183 2.08312,0.38051 2.37852,0.41926 l 0.53708,0.0705 v 3.98633 3.98634 l -4.98721,-0.0493 c -4.89504,-0.0484 -5.76654,-0.10547 -6.59549,-0.43196 -0.24227,-0.0954 -0.80716,-1.01547 -2.08455,-3.39517 -2.76542,-5.15177 -4.0196,-7.01423 -6.3839,-9.47994 -2.89527,-3.01947 -6.49121,-5.23347 -10.30837,-6.34682 -2.91647,-0.85064 -4.90691,-0.98545 -15.54841,-1.05303 l -8.20972,-0.0521 -7.1e-4,-1.39584 c -2.9e-4,-0.76771 -0.0927,-7.817836 -0.20534,-15.666941 -0.11262,-7.849105 -0.24952,-19.219949 -0.30423,-25.268543 -0.0547,-6.048593 -0.11044,-11.664961 -0.12385,-12.480818 -0.0244,-1.483356 -0.0244,-1.483348 -0.0865,0.613811 -0.0351,1.185028 -0.0552,-0.327819 -0.0461,-3.478261 0.0153,-5.327366 0.0256,-5.610357 0.23164,-6.360008 0.27532,-1.001587 0.51784,-1.471587 1.03358,-2.003015 0.50936,-0.524865 1.02387,-0.793942 2.04184,-1.067837 0.75438,-0.202973 1.17421,-0.214971 10.91244,-0.311841 11.71899,-0.116573 13.20384,-0.07449 15.14066,0.429085 3.29434,0.856528 5.89196,2.773609 7.59591,5.605869 0.2954,0.490999 0.53653,0.962166 0.53586,1.047039 -0.001,0.08487 -0.11317,-0.04145 -0.24997,-0.280706 -0.40724,-0.712271 -1.16614,-1.650601 -2.20133,-2.721812 -2.54936,-2.638057 -3.81876,-3.171336 -8.18686,-3.439317 -4.37259,-0.268257 -18.47464,-0.401589 -21.27877,-0.201186 -3.3517,0.239535 -4.47239,0.767729 -4.99679,2.355044 -0.35267,1.067494 -0.42212,1.928348 -0.40374,5.004951 l 0.0174,2.915601 0.067,-3.273657 c 0.0588,-2.874444 0.0932,-3.369615 0.28176,-4.060534 0.26369,-0.96599 0.41857,-1.270115 0.85687,-1.682489 0.97539,-0.917698 2.38384,-1.149167 7.50234,-1.232952 3.7613,-0.06157 15.0981,0.116563 17.78359,0.27943 3.67241,0.222723 4.98002,0.601333 6.62767,1.919006 0.90889,0.726873 2.51369,2.378677 3.20041,3.294163 0.55879,0.744927 1.12109,1.84524 1.00323,1.963103 -0.1436,0.1436 -2.56594,0.305384 -5.72618,0.382438 l -3.14448,0.07667 2.25817,0.01652 c 2.24741,0.01644 5.70388,-0.134988 6.38633,-0.279779 0.33178,-0.07039 0.35595,-0.101329 0.32935,-0.42152 -0.0367,-0.441928 0.003,-0.394295 0.31822,0.385334 l 0.25882,0.639386 -8.15141,2.05e-4 c -4.48326,8.6e-5 -9.78567,0.02037 -11.78311,0.04508 -2.81158,0.03478 -3.36604,0.02261 -2.45524,-0.0539 0.64706,-0.05435 3.68542,-0.136103 6.75192,-0.18167 l 5.57544,-0.08285 -4.45013,-0.01629 c -9.26535,-0.03392 -13.24121,0.405554 -14.34755,1.585917 -0.34156,0.364414 -0.44343,0.868886 -0.58516,2.897931 -0.12137,1.737402 -0.13967,9.805452 -0.0289,12.745698 0.0598,1.586982 0.0896,0.353417 0.13519,-5.584572 0.0499,-6.511506 0.0824,-7.720767 0.22299,-8.303199 0.37821,-1.567158 1.06667,-2.253107 2.61942,-2.60989 0.83792,-0.192534 8.1265,-0.318084 19.23298,-0.3313 l 7.40239,-0.0088 -0.0659,-0.262633 c -0.14178,-0.564877 -0.88311,-2.139335 -1.40376,-2.981321 -0.67299,-1.088356 -2.39866,-2.87195 -3.41374,-3.528336 -1.43332,-0.926821 -2.90138,-1.528078 -4.73478,-1.939165 -0.93659,-0.210004 -1.2962,-0.224584 -6.41422,-0.260066 -2.9821,-0.02068 -8.34527,0.0036 -11.91816,0.05396 -6.11438,0.08617 -6.54278,0.104154 -7.28939,0.306095 -2.06071,0.557378 -2.9276,1.762371 -3.20197,4.45081 -0.0664,0.650727 0.0878,38.824896 0.225,55.698612 l 0.061,7.49702 9.2715,-0.009 c 10.23128,-0.01 10.75174,0.0144 13.61932,0.63153 2.45947,0.52927 5.68923,1.87977 7.67264,3.20825 3.22453,2.15978 5.82993,5.08645 8.10409,9.10336 0.25483,0.45013 1.02646,1.90026 1.71471,3.22251 0.68826,1.32225 1.5072,2.88323 1.81987,3.46886 l 0.56849,1.06477 3.22257,-0.0673 c 1.77241,-0.037 4.59613,-0.0673 6.27493,-0.0673 z m -134.46894,-7.22294 c -0.034,-0.034 -0.12223,-0.0376 -0.19608,-0.008 -0.0816,0.0327 -0.0574,0.0569 0.0618,0.0618 0.10784,0.004 0.16826,-0.0198 0.13427,-0.0537 z m 2.04817,-0.21331 c -0.0985,-0.0257 -0.2596,-0.0257 -0.35806,0 -0.0985,0.0257 -0.0179,0.0468 0.17903,0.0468 0.19693,0 0.27749,-0.021 0.17903,-0.0468 z m 23.44416,-0.19899 c 0.0793,-0.0696 -19.46736,-0.0109 -21.06565,0.0632 -0.87212,0.0404 3.50128,0.0512 9.71867,0.0238 6.21739,-0.0273 11.32353,-0.0665 11.34698,-0.0871 z m 2.33589,0.0967 c -0.0985,-0.0257 -0.25959,-0.0257 -0.35806,0 -0.0985,0.0257 -0.0179,0.0468 0.17903,0.0468 0.19693,0 0.27749,-0.021 0.17903,-0.0468 z M 260.81841,110.6394 v -2.25064 h -2.30179 -2.30179 v 2.25064 2.25064 h 2.30179 2.30179 z m 0.11554,-21.250041 c -0.11037,-1.334185 -0.30174,-1.752239 -0.95455,-2.085283 -0.61232,-0.312379 -1.43127,-0.356311 -5.24794,-0.281524 -1.91305,0.03749 -8.06057,0.07249 -13.66118,0.07779 -8.25709,0.0078 -10.40467,-0.01801 -11.3555,-0.136575 -2.42837,-0.302799 -4.36412,-0.854607 -6.28767,-1.792367 -4.40486,-2.147432 -7.28372,-6.041134 -8.38218,-11.337 -0.28973,-1.396832 -0.32575,-1.242787 -0.10686,0.45704 0.33268,2.583467 1.58639,5.342765 3.34844,7.36957 1.47091,1.691923 3.20159,2.881825 6.60648,4.542187 l 2.48891,1.213688 10.19651,0.0016 c 14.5938,0.0023 22.01398,0.192176 22.43607,0.574162 0.19682,0.178126 0.3681,0.811863 0.49773,1.841676 l 0.0885,0.702768 -0.029,-0.920716 c -0.0387,-1.228922 -0.24943,-1.751194 -0.76135,-1.887316 -0.75532,-0.200843 -5.40346,-0.335236 -14.08139,-0.40714 l -8.90026,-0.07375 8.3376,-0.04352 c 14.62963,-0.07636 13.98195,-0.08579 14.57801,0.212234 0.37772,0.188864 0.57839,0.376155 0.76726,0.716112 l 0.25575,0.460358 0.066,4.859335 c 0.095,7.001082 0.13271,7.442152 0.16614,1.943734 0.0162,-2.672634 -0.0132,-5.375815 -0.0654,-6.00707 z m -108.40198,2.630576 c 3.8933,-0.24288 7.17433,-0.940453 10.35578,-2.201714 5.67693,-2.25058 10.39576,-6.362121 13.73404,-11.966549 2.44278,-4.101033 3.89743,-8.363807 4.5732,-13.401534 0.26068,-1.94334 0.26021,-7.8216 -8.2e-4,-10.179028 -0.35011,-3.161915 -1.01562,-6.793084 -1.65935,-9.053709 -1.77948,-6.249117 -5.54006,-11.644322 -10.63456,-15.25711 -3.4288,-2.431546 -7.52382,-4.168511 -11.91816,-5.055265 -3.90016,-0.78703 -8.75036,-0.925133 -13.52941,-0.385231 l -0.99745,0.112684 0.0135,4.000901 c 0.0149,4.450381 0.0772,4.358463 0.34497,-0.509258 0.0957,-1.739362 0.18077,-3.169419 0.1891,-3.177905 0.0838,-0.08537 7.25635,-0.19458 8.53212,-0.129908 13.20788,0.669549 23.21705,7.945797 27.20345,19.775759 1.22101,3.623435 1.82177,7.450339 1.96109,12.492341 0.15116,5.470336 -0.17655,9.663455 -0.96344,12.327366 -0.94719,3.206596 -2.54124,6.539998 -4.5986,9.616368 -1.19963,1.793801 -2.04001,2.820434 -3.52119,4.301615 -4.59453,4.594534 -10.08769,7.162587 -17.15177,8.018456 -1.76156,0.213426 -5.19538,0.362327 -8.39431,0.364003 l -2.57439,0.0013 -0.0592,-0.741688 C 143.35741,89.981127 143.09,83.813733 142.96078,80 c -0.0572,-1.687979 -0.16537,-8.721669 -0.24039,-15.63042 -0.075,-6.908752 -0.17092,-12.594174 -0.21313,-12.634272 -0.0714,-0.06781 -0.0519,5.052873 0.11579,30.435654 l 0.065,9.843597 1.29024,0.03187 c 3.19845,0.079 7.05396,0.06706 8.55366,-0.0265 z M 256.5522,79.194417 c 0.2151,-0.303427 -0.0863,-1.22406 -1.50064,-4.583333 -4.07291,-9.673877 -6.6703,-15.521707 -7.08769,-15.957364 -0.15675,-0.163612 -0.5396,-0.422516 -0.85078,-0.575342 l -0.56578,-0.277866 -12.09718,-0.02721 -12.09719,-0.02721 v 6.42376 c 0,3.819024 0.0431,6.775268 0.1063,7.290642 0.32013,2.610812 1.36226,4.734362 2.93802,5.986816 1.15845,0.920776 2.96722,1.629796 4.79556,1.879814 1.04935,0.143495 26.25354,0.01661 26.35938,-0.132697 z M 142.42346,50.613811 c -0.0257,-0.09847 -0.0468,-0.0179 -0.0468,0.179028 0,0.196931 0.0211,0.277494 0.0468,0.179028 0.0257,-0.09847 0.0257,-0.259591 0,-0.358056 z m -7.6754,-0.460358 c -0.0284,-0.07033 -0.0516,-0.01279 -0.0516,0.127877 0,0.140665 0.0232,0.19821 0.0516,0.127877 0.0284,-0.07033 0.0284,-0.185422 0,-0.255754 z m 7.57347,-0.35611 c -0.0259,-0.09954 -0.0489,-0.04287 -0.051,0.125931 -0.002,0.168798 0.0191,0.250236 0.0472,0.180975 0.028,-0.06926 0.0297,-0.207369 0.004,-0.306906 z m -6.95229,-1.715502 c 0.28632,-0.553348 0.8698,-1.116022 1.44474,-1.39322 0.64213,-0.309589 2.19389,-0.389519 3.00189,-0.154626 0.99418,0.289017 1.81002,1.196745 2.24604,2.499018 l 0.19531,0.583355 -0.0573,-0.460358 c -0.1623,-1.30443 -0.83391,-2.428505 -1.72153,-2.881335 -0.52636,-0.268528 -1.83275,-0.36349 -2.65361,-0.192894 -0.82331,0.171104 -1.95081,0.758989 -2.32627,1.212923 -0.35473,0.428876 -0.56818,1.054507 -0.65754,1.927295 l -0.0613,0.598973 0.18892,-0.664962 c 0.10391,-0.365729 0.28421,-0.849105 0.40066,-1.074169 z m 5.03997,-11.193742 c 0.84248,-0.265431 1.27938,-0.534543 1.47174,-0.906525 0.17386,-0.336213 0.51767,-2.056956 0.42875,-2.145878 -0.0325,-0.03248 -0.0591,0.01595 -0.0591,0.10761 0,0.408451 -0.47057,1.374032 -0.88615,1.818321 -0.66434,0.710232 -1.4708,1.037858 -2.69337,1.094194 -1.2067,0.0556 -1.9391,-0.18034 -2.66369,-0.858112 -1.03524,-0.968344 -1.32265,-1.935499 -1.42514,-4.795663 l -0.0733,-2.046036 -0.0287,1.483376 c -0.0229,1.183104 -0.0457,1.381668 -0.11281,0.980924 -0.15662,-0.935112 -0.30099,-3.414481 -0.30099,-5.168892 0,-1.483386 0.023,-1.745536 0.15345,-1.745536 0.13114,0 0.15493,0.308596 0.16365,2.122763 0.006,1.223169 0.0449,2.014377 0.0921,1.867007 0.0451,-0.140665 0.0865,-1.13397 0.0921,-2.207346 l 0.0102,-1.951591 -0.32029,0.04701 -0.32029,0.04701 0.0573,2.978752 c 0.0608,3.157173 0.19003,4.408522 0.63765,6.17308 0.46846,1.846745 1.10381,2.857765 1.97082,3.136153 0.74356,0.238751 0.91621,0.256838 2.06684,0.216523 0.70471,-0.02469 1.30288,-0.109694 1.73913,-0.24714 z m 2.01148,-3.716743 c -0.0284,-0.07033 -0.0516,-0.01279 -0.0516,0.127877 0,0.140665 0.0232,0.198209 0.0516,0.127877 0.0284,-0.07033 0.0284,-0.185422 0,-0.255754 z"
     id="path2032" />
  <path
     style="fill:#ffffff;stroke-width:0.818414"
     d="m 155.46427,140.13953 c 0.11539,-0.26085 0.26543,-0.80177 0.33343,-1.20205 0.15474,-0.91082 0.13469,-4.27639 -0.0308,-5.17789 -0.38416,-2.09213 -1.28839,-3.2936 -2.85556,-3.79421 -0.57205,-0.18273 -1.06069,-0.23187 -2.93687,-0.29531 -3.36201,-0.11369 -23.99918,0.0544 -24.74659,0.20152 -0.85676,0.16869 -1.6097,0.52835 -2.15143,1.0277 l -0.4677,0.43111 v -4.40347 -4.40348 l 0.28133,-0.11144 0.28133,-0.11145 -0.28133,0.0537 -0.28133,0.0537 v -2.29275 -2.29274 l 1.7647,-0.0611 c 6.80862,-0.2357 78.62649,-0.42875 78.84349,-0.21195 0.1177,0.11759 0.0205,0.32258 -0.90571,1.91097 -0.30429,0.52182 -1.18215,2.16872 -1.95078,3.65976 -1.84057,3.57047 -3.14055,5.64273 -3.81235,6.07715 -0.65708,0.42491 -4.15058,0.57143 -15.26928,0.6404 -9.69329,0.0601 -15.01516,-0.0423 -16.55404,-0.31878 -0.7953,-0.14287 -1.20929,-0.32762 -1.50222,-0.67041 -0.0844,-0.0988 -0.95175,-1.12886 -1.92744,-2.28909 -0.9757,-1.16024 -2.03452,-2.34303 -2.35295,-2.62841 -0.91169,-0.81713 -2.37059,-1.43724 -3.95491,-1.68108 -0.25719,-0.0396 -0.0765,0.0528 0.48634,0.24866 2.88505,1.00392 5.21725,3.03459 6.56211,5.71367 0.45463,0.90567 1.01849,1.48966 1.78552,1.84928 0.51825,0.24297 0.69376,0.27038 1.70312,0.26589 12.31588,-0.0548 30.28328,-0.26344 30.73655,-0.35698 1.286,-0.26543 1.75078,-0.76412 2.57067,-2.75822 1.08452,-2.63776 2.35614,-5.10111 4.33039,-8.38875 l 1.07508,-1.79028 -1.76044,-0.033 c -1.56776,-0.0294 -17.54169,0.0327 -65.26427,0.25368 l -14.60358,0.0676 v -4.04127 -4.04127 l 1.4578,-0.0667 c 0.80179,-0.0367 5.95072,-0.0669 11.44208,-0.0671 5.49136,-2e-4 10.40568,-0.0303 10.92072,-0.0668 l 0.93643,-0.0665 v -4.25884 -4.25885 l -5.85678,0.0285 c -3.22123,0.0156 -8.79156,0.0415 -12.37852,0.0574 l -6.52173,0.029 V 96.515819 92.46263 l 2.99232,-0.06744 c 1.64578,-0.03709 4.41373,-0.06753 6.151,-0.06763 l 3.15867,-1.88e-4 -0.0636,-6.01023 c -0.035,-3.305627 -0.0979,-11.810742 -0.13986,-18.900256 -0.0419,-7.089514 -0.10553,-12.084399 -0.14138,-11.099744 -0.0358,0.984654 -0.0708,9.466752 -0.0776,18.849104 l -0.0125,17.058824 h -5.9335 -5.9335 v -33.5392 -33.5392 l 1.30434,-0.06652 c 0.71739,-0.03659 2.22507,-0.06869 3.35039,-0.07134 2.59744,-0.0061 5.29528,-0.146955 5.54001,-0.289204 0.13635,-0.07925 -1.25516,-0.110656 -5.00293,-0.112902 l -5.19181,-0.0031 v -3.925095 -3.925094 l 14.09207,-0.07296 c 16.61931,-0.08605 17.37311,-0.05905 21.6624,0.775889 5.19465,1.011169 10.38644,3.199993 14.59813,6.154472 4.73942,3.324676 8.61452,7.713307 11.26989,12.763369 2.61313,4.969733 3.91749,10.134016 4.68823,18.561902 0.17373,1.899744 0.17418,7.892478 7.1e-4,9.565218 -0.66121,6.376099 -2.22594,11.50366 -5.01059,16.419437 -0.77864,1.374557 -2.71193,4.233106 -3.66699,5.421995 -3.32518,4.139306 -7.82466,7.697718 -12.51877,9.900458 -3.09451,1.452124 -5.69921,2.293161 -9.98934,3.225486 l -2.23572,0.485862 -0.0266,4.536277 -0.0266,4.53627 20.94737,-0.0689 c 11.52105,-0.0379 21.07322,-0.093 21.22704,-0.12232 l 0.27968,-0.0534 0.0293,-5.84901 c 0.0521,-10.397586 -0.0242,-34.616166 -0.14382,-45.6226 -0.0641,-5.895932 -0.086,-11.144014 -0.0487,-11.662404 0.0373,-0.518391 0.15775,-1.369299 0.26777,-1.890908 1.23917,-5.874593 5.20963,-9.59934 11.15197,-10.461815 0.97471,-0.14147 18.17018,-0.136379 21.94373,0.0065 4.61004,0.174547 6.02297,0.360531 8.27851,1.0897 1.41671,0.45799 3.60295,1.565368 4.86319,2.463311 1.16943,0.833231 2.82164,2.398766 3.70404,3.509721 1.39663,1.758375 1.98652,2.918743 5.43125,10.683677 2.48312,5.597333 10.69948,24.700794 14.4644,33.630444 0.96844,2.296962 0.87013,0.01528 0.97521,22.635544 0.0512,11.02813 0.0729,20.78772 0.0483,21.68798 -0.0536,1.95497 -0.24498,2.80882 -0.95126,4.2433 -0.86366,1.75411 -2.44698,3.053 -4.48625,3.68036 -1.54942,0.47666 -2.27786,0.52338 -9.16808,0.58803 l -6.50825,0.0611 -0.22053,0.98216 c -0.12129,0.5402 -0.29195,1.22386 -0.37924,1.51926 l -0.15872,0.53708 h -4.14648 c -3.90805,0 -4.14236,-0.0103 -4.075,-0.17903 0.28875,-0.72327 0.88491,-2.66742 1.0117,-3.29923 0.5424,-2.7032 0.41298,-4.83088 -0.45424,-7.46803 -1.96875,-5.98674 -7.03797,-10.34718 -13.39477,-11.52193 -1.36635,-0.2525 -4.37531,-0.25026 -5.78005,0.004 -7.40105,1.3412 -12.99226,7.09545 -14.07243,14.48278 -0.26555,1.8161 0.0643,4.48555 0.82775,6.69975 0.22319,0.64728 0.40581,1.2004 0.40581,1.22914 0,0.0287 -1.78811,0.0522 -3.97358,0.0522 h -3.97358 l -0.13001,-0.43478 c -0.33325,-1.11438 -1.01468,-1.95839 -1.80716,-2.23829 -0.31428,-0.11101 -1.13241,-0.13342 -3.92642,-0.10754 -1.94117,0.018 -9.27075,0.064 -16.28796,0.1023 -11.7842,0.0643 -12.77174,0.0828 -12.93132,0.24244 -0.10782,0.10786 -0.22283,0.51166 -0.30593,1.07417 -0.0732,0.49574 -0.15912,1.00492 -0.19084,1.13152 l -0.0577,0.23018 h -4.23783 -4.23782 l 0.2098,-0.47428 z m 102.71098,-10.67661 h 3.05237 v -4.29041 -4.29041 l -0.43478,-0.0545 c -0.23913,-0.0299 -1.19437,-0.14955 -2.12276,-0.26578 -3.00862,-0.37665 -4.85836,-0.83694 -6.44502,-1.60378 -0.78745,-0.38058 -1.11963,-0.61747 -1.7506,-1.24842 -1.32417,-1.32412 -1.64188,-2.25247 -1.89445,-5.53574 -0.29732,-3.86503 -0.0214,-5.94145 1.04232,-7.84354 1.04826,-1.87445 2.62746,-3.08096 4.70936,-3.59794 1.21381,-0.30142 1.63169,-0.34464 4.08263,-0.42229 l 2.25064,-0.0713 -1.79028,-0.0292 -1.79028,-0.0292 1.63683,-0.190652 c 0.90025,-0.10486 1.73129,-0.213087 1.84676,-0.240506 0.20824,-0.04945 0.20965,-0.08402 0.17423,-4.272934 -0.0196,-2.322694 -0.0503,-4.315153 -0.0681,-4.427685 -0.0178,-0.112532 -0.0387,1.762551 -0.0464,4.16685 l -0.0139,4.371452 -0.23018,0.04879 c -0.1266,0.02684 -1.17391,0.146477 -2.32736,0.265866 -5.17371,0.535509 -6.87369,1.271949 -8.32778,3.607609 -1.56545,2.51456 -2.00585,5.47128 -1.4322,9.61554 0.18756,1.35503 0.56222,2.67868 0.98969,3.49659 0.18421,0.35246 0.63074,0.92394 1.04243,1.33415 1.45012,1.44491 3.5964,2.21297 8.62296,3.08582 l 1.66236,0.28866 4e-5,3.97395 4e-5,3.97394 -4.98721,-0.0493 c -5.01367,-0.0496 -5.99866,-0.11962 -6.66015,-0.47365 -0.23355,-0.12498 -0.98551,-1.39778 -2.57141,-4.35243 -0.6332,-1.1797 -1.36064,-2.49172 -1.61653,-2.9156 -3.62729,-6.00845 -8.25389,-9.88363 -14.03816,-11.75815 -3.02406,-0.98001 -5.06563,-1.13365 -16.03447,-1.20668 l -8.20972,-0.0547 -5.1e-4,-1.34363 c -3e-4,-0.73899 -0.0923,-7.765627 -0.20449,-15.614732 -0.1122,-7.849104 -0.24928,-19.081841 -0.30463,-24.961636 -0.0553,-5.879796 -0.11116,-11.312021 -0.12403,-12.071612 l -0.0234,-1.381074 -0.0636,1.636829 c -0.035,0.900256 -0.0561,-0.872123 -0.0469,-3.938619 0.016,-5.326085 0.0264,-5.610537 0.23239,-6.360008 0.38593,-1.404004 0.94618,-2.177858 1.93833,-2.677365 1.18703,-0.597623 1.03711,-0.588888 12.04953,-0.702025 11.61986,-0.119377 13.1982,-0.07642 15.08951,0.410678 2.61646,0.673855 4.72432,1.95271 6.38214,3.872106 0.7413,0.858252 1.67834,2.301187 1.77151,2.727894 0.0267,0.122279 -0.068,0.02657 -0.21045,-0.212694 -0.69765,-1.171892 -2.48787,-3.149288 -3.82876,-4.229071 -1.35954,-1.094813 -2.74505,-1.587321 -5.13746,-1.826231 -3.07015,-0.306593 -19.41974,-0.540815 -22.50308,-0.322378 -3.57978,0.253607 -4.71023,0.7851 -5.22676,2.457408 -0.33548,1.086176 -0.39998,1.863602 -0.38253,4.611047 l 0.0166,2.608695 0.0707,-3.017903 c 0.0624,-2.663208 0.0967,-3.106536 0.29212,-3.772031 0.27722,-0.944332 0.41645,-1.210267 0.84443,-1.612935 0.97539,-0.917698 2.38384,-1.149167 7.50233,-1.232952 3.76131,-0.06157 15.09811,0.116563 17.7836,0.27943 3.67241,0.222723 4.98002,0.601333 6.62767,1.919006 0.92794,0.7421 2.54902,2.408494 3.20803,3.297696 0.55555,0.749592 1.11145,1.843729 0.99561,1.95957 -0.13534,0.135345 -2.43611,0.297891 -5.4947,0.388193 l -2.96675,0.08759 3.2225,-0.0408 c 3.45196,-0.04371 5.20551,-0.167287 5.33446,-0.375944 0.0435,-0.07032 0.0514,-0.243331 0.0177,-0.384464 -0.10026,-0.419779 0.0556,-0.178292 0.31947,0.495122 l 0.24664,0.629348 -8.15097,2.05e-4 c -4.48303,8.6e-5 -9.78524,0.02037 -11.78268,0.04508 -2.78658,0.03447 -3.35794,0.02217 -2.45525,-0.05284 0.64706,-0.05377 3.5243,-0.138725 6.39387,-0.188794 l 5.21739,-0.09103 -5.5243,0.03451 c -3.03836,0.01898 -6.12276,0.0834 -6.85422,0.143153 -3.19214,0.260777 -4.87596,0.659152 -5.56421,1.316441 -0.48548,0.463633 -0.58077,0.863155 -0.72486,3.038852 -0.11868,1.79201 -0.13884,10.781832 -0.0275,12.276215 0.0482,0.647215 0.098,-1.532445 0.1355,-5.933504 0.0515,-6.045935 0.0817,-7.040878 0.23017,-7.60098 0.40742,-1.536552 1.08131,-2.193267 2.6114,-2.544845 0.83764,-0.192467 8.1254,-0.318076 19.2219,-0.3313 4.92383,-0.0059 7.3913,-0.04345 7.3913,-0.11259 0,-0.05708 -0.15843,-0.496695 -0.35208,-0.976922 -1.41039,-3.497706 -4.09084,-6.019538 -7.65025,-7.197555 -1.90661,-0.63101 -2.1337,-0.650798 -7.95675,-0.693336 -2.95396,-0.02158 -8.31714,0.0042 -11.91816,0.05728 -7.18254,0.105885 -7.2672,0.113381 -8.45955,0.748898 -1.1099,0.591567 -1.69939,1.574888 -1.98198,3.306077 -0.15341,0.939797 -0.15767,2.945409 -0.0524,24.654731 0.063,12.997443 0.14222,27.143483 0.176,31.435646 l 0.0614,7.80393 9.27148,-0.009 c 8.96753,-0.009 10.13203,0.0222 11.97833,0.31594 4.1279,0.6567 8.03702,2.35762 11.1039,4.83148 1.17654,0.94904 2.9854,2.85537 3.97532,4.18953 1.37633,1.85493 2.0616,3.00689 4.00135,6.7264 0.66023,1.26598 1.47886,2.82699 1.8192,3.46888 l 0.61878,1.1671 3.22368,-0.0674 c 1.77302,-0.037 4.59725,-0.0673 6.27605,-0.0673 z m -132.52521,-7.42754 c -0.034,-0.034 -0.12223,-0.0376 -0.19608,-0.008 -0.0816,0.0327 -0.0574,0.0569 0.0618,0.0618 0.10784,0.004 0.16827,-0.0197 0.13427,-0.0537 z m 23.24169,-0.20806 c 0.0847,-0.0736 -19.19479,-0.0148 -20.04263,0.0611 -0.47826,0.0428 3.82609,0.0549 9.56522,0.0269 5.73913,-0.028 10.45397,-0.0676 10.47741,-0.088 z m 2.53836,0.10575 c -0.034,-0.034 -0.12223,-0.0376 -0.19607,-0.008 -0.0816,0.0327 -0.0574,0.0569 0.0618,0.0618 0.10785,0.004 0.16827,-0.0197 0.13427,-0.0537 z m 109.38832,-11.29368 v -2.25064 h -2.30179 -2.30179 v 2.25064 2.25064 h 2.30179 2.30179 z m 0.12069,-21.225517 c -0.10788,-1.283665 -0.29665,-1.70674 -0.92683,-2.077208 l -0.47263,-0.277841 -14.32225,0.03318 c -12.29161,0.02848 -14.48905,0.01138 -15.49872,-0.120636 -2.47904,-0.32413 -4.3796,-0.867869 -6.29156,-1.799976 -4.35973,-2.125431 -7.26238,-6.014843 -8.34718,-11.184824 -0.12646,-0.60266 -0.24804,-1.07763 -0.27018,-1.055488 -0.0221,0.02214 0.0327,0.601313 0.12195,1.287046 0.28709,2.206783 1.24616,4.610695 2.57682,6.458818 0.82531,1.146257 2.46528,2.692555 3.76852,3.553278 0.59842,0.395224 2.21402,1.273904 3.59022,1.952622 l 2.50219,1.234033 10.20274,0.0016 c 14.68476,0.0023 22.01821,0.190369 22.44382,0.575545 0.19223,0.173961 0.35796,0.779218 0.48625,1.775789 l 0.0856,0.664962 0.013,-0.5832 c 0.0175,-0.784915 -0.16295,-1.571526 -0.43221,-1.884563 -0.19801,-0.230205 -0.33397,-0.266872 -1.29469,-0.349163 -1.79436,-0.1537 -9.00189,-0.300541 -15.70258,-0.319914 -5.62061,-0.01625 -5.10815,-0.02736 4.50127,-0.09757 6.67728,-0.04879 11.05609,-0.04234 11.39597,0.01677 0.74761,0.13002 1.13865,0.37964 1.44291,0.921081 l 0.25575,0.455128 0.0662,4.757034 c 0.0887,6.372426 0.13063,6.752174 0.16395,1.485484 0.0153,-2.418278 -0.0109,-4.858176 -0.0583,-5.421995 z m -108.40713,2.606052 c 7.04741,-0.439647 12.83221,-2.569788 17.56191,-6.466837 5.28199,-4.352104 9.25406,-11.234698 10.66761,-18.484261 0.52851,-2.710513 0.61008,-3.702365 0.61499,-7.478034 0.006,-4.270776 -0.22612,-6.71802 -1.03145,-10.895141 -1.27692,-6.623269 -3.802,-11.604851 -8.01293,-15.808241 -4.46846,-4.460449 -10.46034,-7.328097 -17.39604,-8.325539 -1.84813,-0.265786 -3.44947,-0.365471 -5.8312,-0.362998 -2.22461,0.0023 -3.21573,0.05797 -5.54987,0.31168 l -1.09975,0.119536 0.008,3.644035 c 0.005,2.150529 0.0438,3.539213 0.0952,3.388279 0.0479,-0.140665 0.16372,-1.705882 0.2573,-3.478261 0.0936,-1.772378 0.17732,-3.22945 0.18609,-3.237936 0.0883,-0.08544 7.25718,-0.19458 8.53294,-0.129908 7.12072,0.360972 13.34719,2.627494 18.31272,6.666088 5.39151,4.385056 9.03043,10.986645 10.24956,18.594339 0.83293,5.197694 0.85536,13.566631 0.0473,17.647059 -1.06589,5.382379 -4.87383,12.205942 -8.97107,16.075562 -4.31031,4.070841 -9.47544,6.511885 -15.67338,7.407246 -2.2455,0.324388 -3.62745,0.407447 -7.89387,0.474442 l -4.10742,0.0645 -0.0605,-0.757678 c -0.0845,-1.058696 -0.34995,-7.105448 -0.47552,-10.834404 -0.0578,-1.716113 -0.16718,-8.773365 -0.24308,-15.682782 -0.0759,-6.909417 -0.17204,-12.594839 -0.21363,-12.634271 -0.0416,-0.03943 -0.047,4.439815 -0.0121,9.953881 0.0349,5.514067 0.093,14.570321 0.12905,20.125008 l 0.0656,10.099432 1.3412,0.03168 c 3.3282,0.07862 7.00106,0.06718 8.50233,-0.02648 z M 255.83188,79.271121 c 0.61483,-0.05273 0.69782,-0.08561 0.75099,-0.297517 0.10067,-0.401074 -0.19573,-1.197162 -2.27358,-6.106573 -3.91506,-9.250248 -5.9426,-13.785089 -6.36049,-14.225994 -0.14846,-0.156636 -0.52453,-0.409833 -0.83571,-0.562659 l -0.56578,-0.277866 -12.09718,-0.02721 -12.09719,-0.02721 8.2e-4,6.369926 c 5.1e-4,3.693677 0.045,6.75573 0.10603,7.288206 0.30053,2.623468 1.35773,4.796486 2.93745,6.037757 1.33531,1.049233 2.87439,1.612299 5.29328,1.936521 0.46646,0.06252 24.34973,-0.03947 25.14134,-0.107371 z M 142.42069,50.664962 c -0.0284,-0.07033 -0.0516,-0.01279 -0.0516,0.127877 0,0.140665 0.0232,0.19821 0.0516,0.127877 0.0284,-0.07033 0.0284,-0.185422 0,-0.255754 z m -0.10017,-0.812021 c -0.0326,-0.08161 -0.0569,-0.05737 -0.0618,0.06181 -0.004,0.107842 0.0197,0.168265 0.0537,0.134271 0.034,-0.03399 0.0376,-0.12223 0.008,-0.196079 z m -6.95267,-1.7711 c 0.28876,-0.554434 0.87217,-1.116494 1.44613,-1.39322 0.64213,-0.309589 2.19389,-0.389519 3.00189,-0.154626 0.9989,0.290389 1.82671,1.21506 2.23725,2.499018 0.22556,0.705461 0.25831,0.399366 0.0449,-0.419888 -0.47079,-1.807473 -1.47668,-2.62847 -3.22043,-2.62847 -1.2473,0 -2.52907,0.480102 -3.27605,1.227086 -0.42459,0.424587 -0.65527,1.02782 -0.76306,1.99542 l -0.057,0.511509 0.1866,-0.613811 c 0.10264,-0.337596 0.28251,-0.797954 0.39973,-1.023018 z m 5.04136,-11.193742 c 0.9064,-0.285569 1.3133,-0.557342 1.49866,-1.000967 0.17348,-0.415197 0.48844,-1.964817 0.4144,-2.038858 -0.0259,-0.02589 -0.0794,0.125165 -0.11887,0.335679 -0.18529,0.987661 -0.92785,1.885944 -1.94176,2.348954 -0.48635,0.222098 -0.80346,0.286629 -1.58568,0.322681 -1.21197,0.05586 -1.94288,-0.179114 -2.66853,-0.857879 -0.99711,-0.932678 -1.31383,-1.942504 -1.4239,-4.539908 l -0.0759,-1.790282 -0.028,1.227622 c -0.0237,1.039582 -0.0409,1.150659 -0.11216,0.725169 -0.15662,-0.935112 -0.30099,-3.414481 -0.30099,-5.168892 0,-1.483386 0.023,-1.745536 0.15345,-1.745536 0.13081,0 0.15524,0.298077 0.16555,2.020461 0.007,1.154927 0.0456,1.888987 0.0902,1.713555 0.043,-0.168798 0.0835,-1.101023 0.0902,-2.071612 l 0.0121,-1.764705 h -0.30691 -0.30691 l 0.001,2.173913 c 0.002,4.836289 0.62767,8.191708 1.78237,9.563988 0.29654,0.352424 0.78627,0.610015 1.41526,0.744407 0.69794,0.149124 2.4922,0.03981 3.24633,-0.19779 z"
     id="path2071" />
  <path
     style="fill:#ffffff;stroke-width:0.818414"
     d="m 155.38554,140.32795 c 0.38689,-0.74816 0.49258,-1.55816 0.49664,-3.80621 0.004,-2.45544 -0.12381,-3.35824 -0.63393,-4.46275 -0.51694,-1.11929 -1.27724,-1.77018 -2.51297,-2.15138 -0.58229,-0.17962 -1.2562,-0.18876 -13.656,-0.18522 -10.12962,0.003 -13.20221,0.0329 -13.75405,0.13437 -0.88921,0.16348 -1.63271,0.51095 -2.24328,1.04841 l -0.47325,0.41657 v -4.39915 c 0,-3.42359 0.0284,-4.41059 0.12787,-4.45074 0.1023,-0.0413 0.1023,-0.0532 0,-0.0597 -0.0983,-0.006 -0.12787,-0.53874 -0.12787,-2.29886 v -2.2908 l 1.7647,-0.0634 c 0.97059,-0.0349 13.80307,-0.1347 28.51663,-0.22179 29.13593,-0.17247 50.14804,-0.16677 50.32843,0.0136 0.12072,0.12074 -0.0201,0.41957 -0.91302,1.93757 -0.29787,0.50639 -1.17235,2.14134 -1.94329,3.63321 -1.85171,3.58332 -3.14448,5.64264 -3.8141,6.07565 -0.65724,0.42501 -4.15211,0.57151 -15.26928,0.64004 -9.719,0.0599 -15.03439,-0.0422 -16.55816,-0.318 -0.47609,-0.0862 -0.94296,-0.24202 -1.14538,-0.38232 -0.18793,-0.13025 -1.09033,-1.13451 -2.00534,-2.2317 -2.73892,-3.28423 -3.35914,-3.79825 -5.23862,-4.34152 -1.21704,-0.3518 -1.53752,-0.324 -0.53963,0.0468 2.69348,1.00086 4.85292,2.92629 6.22071,5.54659 0.49912,0.95618 1.07091,1.55477 1.82397,1.90942 0.48992,0.23073 0.69491,0.26468 1.58567,0.26253 8.69127,-0.0209 30.21955,-0.27021 30.74169,-0.35601 0.89379,-0.14688 1.50221,-0.53188 1.90689,-1.20667 0.17667,-0.29458 0.60968,-1.21364 0.96225,-2.04237 1.10828,-2.605 2.43677,-5.13474 4.31015,-8.20752 l 0.90438,-1.48337 -1.81677,-0.033 c -1.61937,-0.0294 -14.76318,0.0218 -65.116,0.25355 l -14.70588,0.0677 v -4.04125 -4.04126 l 1.4578,-0.0667 c 0.80179,-0.0367 5.92327,-0.0671 11.38107,-0.0676 5.4578,-5.1e-4 10.37212,-0.0306 10.92072,-0.0669 l 0.99744,-0.0661 v -4.25867 -4.25867 l -5.54987,0.0284 c -3.05243,0.0156 -8.62277,0.0414 -12.37852,0.0574 l -6.82864,0.029 V 96.515867 92.46263 l 2.99232,-0.06744 c 1.64578,-0.03709 4.41364,-0.06753 6.15079,-0.06763 l 3.15846,-1.88e-4 -0.0636,-5.95908 c -0.035,-3.277493 -0.0975,-11.391304 -0.13897,-18.03069 -0.0415,-6.639386 -0.1048,-11.565217 -0.14071,-10.946292 -0.0359,0.618926 -0.0711,8.709719 -0.0783,17.97954 l -0.013,16.85422 h -5.9335 -5.9335 v -33.5392 -33.5392 l 1.30434,-0.06652 c 0.71739,-0.03659 2.20205,-0.06869 3.29924,-0.07134 2.55302,-0.0062 5.24604,-0.148063 5.48886,-0.289204 0.13637,-0.07926 -1.24044,-0.110656 -4.95178,-0.112902 l -5.14066,-0.0031 v -3.925095 -3.925094 l 14.09207,-0.07306 c 14.38837,-0.0746 15.98496,-0.04847 18.8491,0.30853 7.15797,0.892193 13.90317,3.723383 19.50862,8.188432 1.3429,1.069697 4.27898,4.0178 5.38887,5.410944 3.93866,4.943825 6.41989,10.558434 7.52738,17.033248 1.19367,6.978598 1.43786,13.403883 0.71574,18.832865 -0.69714,5.241194 -2.29646,10.080479 -4.78094,14.466368 -0.7683,1.356299 -2.70526,4.224388 -3.66174,5.421995 -1.10947,1.389172 -4.15671,4.449635 -5.46914,5.492878 -2.10089,1.669981 -4.6873,3.289379 -7.00241,4.384328 -3.082,1.45766 -5.76408,2.324941 -10.07804,3.25885 l -2.19949,0.476157 -0.0266,4.53594 -0.0266,4.53593 20.94736,-0.0689 c 11.52105,-0.0379 21.07396,-0.093 21.22869,-0.12255 l 0.28133,-0.0537 0.002,-20.88702 c 0.001,-11.487855 -0.0525,-25.62935 -0.11908,-31.425542 -0.1115,-9.708109 -0.10754,-10.632373 0.0503,-11.729431 0.91407,-6.354985 5.04743,-10.533614 11.32004,-11.444024 0.97471,-0.14147 18.17018,-0.136379 21.94373,0.0065 4.61004,0.174547 6.02297,0.360531 8.27851,1.0897 1.40636,0.454647 3.5919,1.559362 4.86727,2.460242 1.22854,0.867796 3.42885,3.064351 4.27871,4.271391 0.93076,1.321956 1.39567,2.221679 3.10352,6.006056 3.98341,8.826722 16.52655,38.065657 16.88779,39.366591 0.211,0.759884 0.21392,0.958626 0.30339,20.664957 0.0497,10.94374 0.0707,20.70333 0.0466,21.68798 -0.0517,2.12051 -0.22473,2.91923 -0.95221,4.39676 -0.86366,1.75411 -2.44698,3.053 -4.48625,3.68036 -1.5493,0.47662 -2.27811,0.52339 -9.16445,0.588 l -6.5046,0.061 -0.22344,0.98219 c -0.1229,0.54022 -0.29519,1.22389 -0.3829,1.51929 l -0.15943,0.53708 h -4.14648 c -3.90715,0 -4.14249,-0.0103 -4.07736,-0.17903 0.96908,-2.51025 1.48355,-5.22375 1.33345,-7.03325 -0.35442,-4.27271 -2.60476,-8.59165 -5.9331,-11.38702 -3.54883,-2.98056 -8.00272,-4.41559 -12.5059,-4.02938 -7.61836,0.65338 -13.7032,6.00667 -15.39013,13.53981 -0.19896,0.88849 -0.23534,1.32887 -0.22684,2.74616 0.0117,1.94589 0.20223,3.05817 0.86497,5.04888 0.22202,0.6669 0.40368,1.23084 0.40368,1.2532 0,0.0223 -1.78811,0.0406 -3.97358,0.0406 h -3.97357 l -0.1299,-0.43478 c -0.30834,-1.0321 -0.91115,-1.82724 -1.64162,-2.1654 -0.44553,-0.20625 -0.58563,-0.212 -4.34783,-0.17843 -2.13811,0.0191 -9.4907,0.0651 -16.33909,0.1023 -11.18078,0.0607 -12.4682,0.0842 -12.61405,0.23008 -0.0954,0.0954 -0.22525,0.55973 -0.31468,1.12532 -0.0837,0.52957 -0.17651,1.04342 -0.20615,1.14188 -0.0502,0.16676 -0.34458,0.17903 -4.29514,0.17903 h -4.24126 l 0.14783,-0.28586 z m 102.78971,-10.86503 h 3.05237 v -4.29041 -4.29041 l -0.43478,-0.0547 c -0.23913,-0.0301 -1.20514,-0.15096 -2.14668,-0.26865 -4.38945,-0.54864 -6.63554,-1.33366 -8.1717,-2.85608 -0.87544,-0.8676 -1.2358,-1.49048 -1.53233,-2.64858 -0.20644,-0.80625 -0.50216,-4.10112 -0.50183,-5.59121 0.001,-2.61193 0.68755,-4.76018 2.03545,-6.36507 1.72099,-2.04911 3.79969,-2.74518 8.39893,-2.81248 l 1.48338,-0.0217 -1.63683,-0.0551 -1.63683,-0.0551 1.73913,-0.186925 c 0.95652,-0.10281 1.7793,-0.225845 1.8284,-0.273411 0.0883,-0.08552 0.0957,-8.186793 0.008,-8.27491 -0.0251,-0.02511 -0.0457,1.802573 -0.0457,4.061518 v 4.107173 l -0.23018,0.04974 c -0.1266,0.02736 -0.94373,0.120999 -1.81585,0.208096 -4.72521,0.471899 -6.49742,1.030109 -7.89887,2.487999 -1.83199,1.90578 -2.77609,4.95126 -2.59092,8.35781 0.1471,2.70622 0.55097,4.68222 1.21207,5.93018 0.39961,0.75438 1.45118,1.82675 2.25203,2.29661 1.35622,0.79568 3.70948,1.47797 7.11561,2.06307 l 1.95611,0.33601 v 3.97095 3.97095 h -4.21995 c -4.38994,0 -6.20764,-0.10082 -7.07792,-0.39116 -0.4892,-0.16319 -0.5397,-0.21632 -1.0868,-1.14302 -0.31558,-0.53452 -1.11383,-1.97651 -1.7739,-3.2044 -1.82858,-3.40163 -2.70604,-4.79308 -4.21336,-6.68139 -3.53442,-4.42778 -8.35346,-7.52524 -13.4324,-8.63373 -2.2876,-0.49928 -7.11373,-0.71078 -16.25193,-0.71224 l -6.06142,-0.001 -0.002,-1.4578 c -0.001,-0.80179 -0.093,-7.69565 -0.20413,-15.319691 -0.11118,-7.624041 -0.23689,-17.751918 -0.27935,-22.506394 l -0.0772,-8.644501 -0.0607,5.933504 c -0.0514,5.023802 -0.0586,4.498371 -0.047,-3.42711 0.008,-5.148338 -0.0153,-8.762149 -0.0508,-8.030691 -0.0355,0.731458 -0.0567,-1.179028 -0.0471,-4.245524 0.0167,-5.324832 0.0272,-5.610713 0.23312,-6.360008 0.39028,-1.419809 0.94313,-2.174664 1.97607,-2.698095 1.13247,-0.573863 1.05122,-0.569254 12.01179,-0.681565 11.6197,-0.119065 13.19853,-0.07607 15.08951,0.410948 2.61882,0.67446 4.73993,1.963599 6.404,3.892108 0.74421,0.862469 1.78338,2.483138 1.77605,2.769888 -0.002,0.08908 -0.0772,0.02395 -0.1687,-0.146575 -0.60023,-1.119094 -2.73333,-3.465819 -4.06603,-4.473219 -1.85517,-1.402342 -3.28825,-1.714678 -8.80465,-1.918942 -4.7342,-0.175301 -16.64168,-0.249778 -18.53098,-0.115905 -2.85842,0.202544 -3.88786,0.477264 -4.65206,1.241458 -0.85939,0.85939 -1.12351,2.198544 -1.09567,5.55534 l 0.018,2.166511 0.0728,-2.659847 c 0.0624,-2.277778 0.10443,-2.768172 0.29275,-3.413975 0.27413,-0.940037 0.41301,-1.206798 0.84296,-1.619148 1.27706,-1.224776 4.24646,-1.415012 18.03942,-1.155707 10.43445,0.196166 11.70243,0.390594 13.87418,2.127404 0.92794,0.7421 2.54902,2.408494 3.20803,3.297696 0.55767,0.75245 1.11131,1.843868 0.99457,1.960614 -0.1202,0.120194 -2.36072,0.289309 -5.1356,0.387636 l -2.5064,0.08881 2.76215,-0.04595 c 2.97772,-0.04954 4.70159,-0.175233 4.92296,-0.358954 0.0847,-0.07027 0.11687,-0.220769 0.0824,-0.384991 -0.0787,-0.374905 0.0872,-0.106097 0.35695,0.578241 l 0.21017,0.533209 -8.15707,2.05e-4 c -4.4864,8.6e-5 -9.79135,0.0204 -11.78879,0.04514 -2.82882,0.03504 -3.36031,0.02322 -2.40409,-0.05347 0.67519,-0.05415 3.27621,-0.139827 5.78005,-0.190401 l 4.55243,-0.09195 -4.91049,0.04163 c -2.70076,0.02289 -5.50895,0.08801 -6.24041,0.144701 -3.12731,0.242383 -4.88182,0.659032 -5.57889,1.324834 -0.46899,0.447958 -0.56723,0.866408 -0.71018,3.024889 -0.11761,1.775884 -0.12258,11.640056 -0.006,12.020461 0.0431,0.140665 0.0998,-2.644502 0.12601,-6.189259 0.0413,-5.589431 0.0703,-6.530565 0.21837,-7.089471 0.40687,-1.536225 1.08102,-2.193248 2.6112,-2.544845 0.83764,-0.192467 8.12541,-0.318076 19.2219,-0.3313 5.23839,-0.0062 7.3913,-0.04113 7.3913,-0.119768 0,-0.06103 -0.18134,-0.544954 -0.40298,-1.075392 -1.89303,-4.530564 -5.75796,-7.275822 -10.8731,-7.723165 -1.58406,-0.138533 -20.68641,-0.04456 -22.54583,0.110916 -2.92548,0.244611 -4.07357,1.286161 -4.51135,4.092718 -0.1331,0.853272 -0.13781,3.749498 -0.0386,23.734016 0.0622,12.519181 0.14116,26.642246 0.17558,31.384586 l 0.0626,8.62244 9.2203,-0.0107 c 6.16922,-0.007 9.6096,0.0275 10.39677,0.10488 3.72028,0.36548 7.56818,1.63068 10.50847,3.45521 2.61691,1.62387 5.13607,4.10422 7.01091,6.90292 1.03716,1.54823 1.63452,2.6065 3.68186,6.52276 0.95598,1.82865 1.78437,3.41269 1.84086,3.52011 0.0989,0.18811 0.2214,0.1928 3.3296,0.12787 1.77478,-0.0371 4.60045,-0.0674 6.27925,-0.0674 z m -109.69273,-7.63526 c 0.0821,-0.072 -18.56475,-0.0164 -19.12191,0.057 -0.30946,0.0408 3.85678,0.053 9.25832,0.0273 5.40153,-0.0258 9.84015,-0.0637 9.86359,-0.0842 z m 112.33589,-11.18827 v -2.25064 h -2.30179 -2.30179 v 2.25064 2.25064 h 2.30179 2.30179 z m 0.11325,-21.249303 c -0.11395,-1.243015 -0.33888,-1.727769 -0.9693,-2.089024 l -0.42272,-0.242239 h -14.88491 -14.88491 l -1.17647,-0.22785 c -4.05515,-0.785368 -6.82579,-2.151041 -9.21948,-4.54436 -2.15902,-2.158693 -3.71859,-5.253768 -4.39096,-8.714165 -0.18391,-0.946508 -0.20013,-0.631066 -0.036,0.700224 0.2426,1.967939 1.09262,4.199072 2.28845,6.006719 0.99105,1.498094 2.81716,3.214311 4.53556,4.262597 0.38321,0.233772 1.79844,0.976256 3.14497,1.649965 l 2.44821,1.224926 10.20542,0.0016 c 14.68741,0.0023 22.02086,0.190347 22.4465,0.575545 0.1842,0.166699 0.34399,0.73458 0.48527,1.724638 l 0.0876,0.613811 0.0125,-0.532049 c 0.0173,-0.736927 -0.16951,-1.528016 -0.43198,-1.829493 -0.19722,-0.226544 -0.33936,-0.263574 -1.34583,-0.350605 -1.77007,-0.153061 -9.04211,-0.30112 -15.80563,-0.321802 -5.36817,-0.01641 -4.75067,-0.02944 4.65473,-0.09816 6.67728,-0.04879 11.05609,-0.04234 11.39597,0.01677 0.74761,0.13002 1.13865,0.37964 1.44291,0.921081 l 0.25575,0.455128 0.0657,4.450128 c 0.0876,5.926891 0.13049,6.298525 0.16542,1.432225 0.016,-2.222506 -0.0141,-4.511034 -0.0668,-5.085616 z M 152.48082,92.01571 c 8.09603,-0.508899 14.39189,-3.145511 19.39872,-8.123913 2.53348,-2.519083 4.28647,-4.982915 5.9716,-8.393076 1.82875,-3.700798 2.76506,-6.797857 3.34022,-11.048593 0.22288,-1.647246 0.25757,-7.78974 0.0546,-9.667519 -0.36521,-3.378646 -1.06708,-7.302812 -1.69568,-9.48063 -1.40542,-4.869154 -3.78471,-8.970087 -7.17673,-12.369755 -4.65142,-4.661911 -10.79554,-7.515464 -18.27691,-8.488457 -2.62166,-0.340961 -7.28465,-0.307847 -10.59279,0.07522 l -1.0486,0.121424 0.003,3.536569 c 0.002,1.976085 0.0412,3.468861 0.0894,3.383117 0.0475,-0.0844 0.16567,-1.60358 0.26265,-3.375959 0.097,-1.772378 0.18333,-3.22992 0.1919,-3.238982 0.0813,-0.08605 7.24957,-0.193875 8.54041,-0.128461 6.98678,0.354058 13.19467,2.581146 18.12478,6.502277 1.11235,0.884705 3.23626,3.007466 4.13083,4.128593 3.19785,4.007771 5.33323,8.914641 6.25215,14.366796 0.87611,5.198135 0.92108,13.72172 0.0945,17.909419 -0.78941,3.999332 -3.09733,8.843359 -6.16579,12.941177 -1.03537,1.382692 -3.23977,3.637153 -4.62769,4.732767 -4.14217,3.269812 -8.83031,5.169791 -14.57693,5.907649 -1.93223,0.248096 -5.28954,0.405004 -8.70447,0.406813 l -2.57439,0.0014 -0.0601,-0.741688 c -0.082,-1.012199 -0.34432,-7.016239 -0.47272,-10.818414 -0.058,-1.716113 -0.16818,-8.728056 -0.24497,-15.582094 -0.0768,-6.85404 -0.17293,-12.493426 -0.21367,-12.53197 -0.0407,-0.03854 -0.0455,4.21125 -0.0106,9.443987 0.0349,5.232737 0.093,14.242954 0.12905,20.022705 l 0.0656,10.508639 1.34125,0.03168 c 3.35993,0.07936 6.90518,0.06649 8.45123,-0.03069 z M 255.83188,79.270844 c 1.10853,-0.09463 1.10439,-0.124044 -0.5874,-4.17187 -2.77939,-6.650013 -5.85925,-13.71972 -6.76438,-15.527326 -0.35933,-0.717619 -0.53659,-0.951724 -0.92073,-1.216022 -0.92293,-0.634992 -0.29254,-0.606265 -13.30453,-0.606265 h -11.9019 v 6.295591 c 0,3.776141 0.0436,6.686889 0.10903,7.273361 0.53441,4.792684 3.12099,7.416205 7.89994,8.012787 0.78152,0.09756 24.27232,0.04199 25.46997,-0.06026 z M 142.32052,49.852941 c -0.0326,-0.08161 -0.0569,-0.05737 -0.0618,0.06181 -0.004,0.107842 0.0197,0.168265 0.0537,0.134271 0.034,-0.03399 0.0376,-0.12223 0.008,-0.196079 z m -6.95084,-1.7711 c 0.28555,-0.553006 0.86905,-1.115873 1.4443,-1.39322 0.65232,-0.314502 2.19355,-0.389617 3.02641,-0.147497 0.96351,0.280099 1.69216,1.070184 2.16846,2.351276 0.27188,0.731279 0.30819,0.601883 0.0798,-0.284283 -0.55815,-2.16536 -2.0861,-3.018998 -4.4192,-2.468933 -1.65114,0.389281 -2.51189,1.211686 -2.77564,2.651983 -0.15358,0.838675 -0.12472,0.92673 0.0861,0.262541 0.0982,-0.309462 0.27364,-0.746803 0.38985,-0.971867 z m 4.34537,-11.043006 c 0.94049,-0.167701 1.84506,-0.559179 2.05903,-0.8911 0.16303,-0.252903 0.41833,-1.188373 0.51214,-1.876635 l 0.0558,-0.409207 -0.13569,0.414769 c -0.36527,1.116509 -0.96008,1.806624 -1.94467,2.256245 -0.48635,0.222098 -0.80346,0.286629 -1.58568,0.322681 -1.22778,0.05659 -1.94076,-0.177137 -2.69634,-0.883891 -0.95747,-0.895598 -1.27792,-1.893986 -1.39425,-4.343841 -0.0765,-1.609977 -0.0792,-1.6252 -0.10612,-0.579263 -0.0245,0.951992 -0.0372,1.01702 -0.11176,0.571717 -0.15662,-0.935112 -0.30099,-3.414481 -0.30099,-5.168892 0,-1.483386 0.023,-1.745536 0.15345,-1.745536 0.13042,0 0.15498,0.280179 0.16365,1.867008 0.006,1.094797 0.0441,1.761226 0.0921,1.611253 0.0451,-0.140665 0.0865,-1.003836 0.0921,-1.918158 l 0.0102,-1.662404 h -0.32127 -0.32126 l 0.0581,2.941176 c 0.0901,4.561471 0.61869,7.315812 1.66786,8.691341 0.63832,0.836879 2.16576,1.13936 4.05359,0.802737 z"
     id="path2110" />
  <path
     style="fill:#ffffff;stroke-width:0.204604"
     d="m 224.4757,85.923557 c -0.73145,-0.361992 -1.4968,-0.748638 -1.70076,-0.859212 -1.90116,-1.03067 -3.43497,-2.245332 -4.63487,-3.670483 -1.11791,-1.327758 -2.04474,-3.042365 -2.67888,-4.955817 -0.26326,-0.794362 -0.32694,-1.079693 -0.44896,-2.011633 -0.0889,-0.679136 -0.0771,-0.715715 0.0502,-0.155312 1.16398,5.125897 3.983,8.857696 8.288,10.971597 0.55637,0.273194 0.93284,0.434963 1.58568,0.68136 0.2532,0.09556 0.447,0.174186 0.43067,0.174719 -0.0163,5.32e-4 -0.14109,-0.02868 -0.27725,-0.06492 -0.13615,-0.03624 -0.25353,-0.05992 -0.26082,-0.05262 -0.0206,0.02059 0.22447,0.168609 0.63809,0.385423 0.34323,0.179913 0.41399,0.222807 0.35806,0.217045 -0.0106,-0.0011 -0.61765,-0.298152 -1.34911,-0.660145 z"
     id="path2149" />
  <path
     style="fill:#ffffff;stroke-width:0.204604"
     d=""
     id="path2188" />
  <path
     style="fill:#ffffff;stroke-width:0.578706"
     d="m 260.74337,125.33096 c 0,-3.79057 -0.008,-4.04849 -0.1266,-4.08439 -0.0696,-0.0211 -0.63115,-0.12265 -1.24783,-0.22571 -1.55394,-0.25969 -3.22848,-0.58942 -4.08712,-0.80478 -1.12722,-0.28272 -2.90645,-0.88579 -2.63451,-0.89296 0.0231,-6.1e-4 0.48089,0.14331 1.01731,0.31983 1.0783,0.35483 2.53235,0.67597 4.07671,0.90037 0.96674,0.14048 3.01477,0.37013 3.30074,0.37013 0.13066,0 0.13532,0.14572 0.13532,4.23179 v 4.23179 h -0.21701 -0.21701 z"
     id="path2227" />
  <path
     style="fill:#ffffff;stroke-width:0.578706"
     d="m 248.68089,129.35895 c -0.0922,-0.11573 -1.06779,-1.95756 -2.11701,-3.99669 -1.37553,-2.67331 -2.16501,-4.09408 -2.98613,-5.37392 -0.2371,-0.36957 -0.41542,-0.68761 -0.39626,-0.70678 0.0398,-0.0398 0.94226,1.29891 1.53936,2.28363 0.22112,0.36465 0.90967,1.61231 1.53011,2.77257 2.06587,3.86328 2.36189,4.34223 2.80478,4.53815 0.63227,0.27968 2.48079,0.45682 5.46653,0.52386 0.45754,0.0103 -0.65339,0.0256 -2.46873,0.0341 -2.56893,0.012 -3.31658,-0.005 -3.37265,-0.075 z"
     id="path2266" />
  <path
     style="fill:#ffffff;stroke-width:0.818414"
     d="m 164.27869,130.14166 c -0.9454,-0.31241 -1.54755,-0.86355 -2.12383,-1.94391 -0.20611,-0.38638 -0.3596,-0.71765 -0.34109,-0.73615 0.0185,-0.0185 0.36712,0.35453 0.7747,0.82898 0.40758,0.47444 0.88555,0.93734 1.06214,1.02866 0.95663,0.49469 4.42708,0.64942 14.61026,0.65141 9.86555,0.002 16.59946,-0.19908 17.95397,-0.53592 0.43004,-0.10694 0.57618,-0.21506 0.99899,-0.73908 0.60637,-0.7515 1.53681,-2.24287 2.27788,-3.65112 0.60799,-1.15536 0.77717,-1.22624 0.20233,-0.0848 -0.1964,0.39002 -0.5428,1.17523 -0.76977,1.74492 -0.68903,1.72952 -1.20359,2.57477 -1.74323,2.86358 -0.76721,0.4106 -0.82007,0.41238 -15.08385,0.50795 -7.53965,0.0505 -14.53709,0.11768 -15.54988,0.14924 -1.41666,0.0442 -1.93997,0.0248 -2.26862,-0.0838 z"
     id="path2305" />
  <path
     style="fill:#ffffff;stroke-width:0.818414"
     d="m 201.17647,121.82449 c 0,-0.12979 1.15621,-2.23747 1.65642,-3.01953 0.27645,-0.43221 0.51173,-0.91454 0.52285,-1.07184 0.0187,-0.26446 -0.0145,-0.29139 -0.44014,-0.35748 -1.21408,-0.18849 -30.73262,-0.0844 -77.289,0.27257 -10.9156,0.0837 -20.18031,0.1522 -20.58824,0.15223 -0.56193,6e-5 -0.74168,-0.0341 -0.74168,-0.1409 0,-0.16312 5.33783,-0.20765 44.50127,-0.37123 12.96931,-0.0542 30.71015,-0.12953 39.42408,-0.16748 l 15.84351,-0.069 -0.11172,0.20875 c -0.0615,0.11482 -0.49691,0.8472 -0.96768,1.62753 -0.47078,0.78033 -1.05169,1.77555 -1.29091,2.21161 -0.40402,0.73646 -0.51876,0.89676 -0.51876,0.72475 z"
     id="path2344" />
  <path
     style="fill:#ffffff;stroke-width:0.409207"
     d="m 98.132992,130.45871 c -0.763052,-0.0582 -1.338599,-0.32271 -1.841306,-0.84623 -0.345242,-0.35953 -0.442864,-0.54816 -1.520182,-2.93729 -0.948757,-2.10402 -3.929637,-9.09421 -3.89352,-9.13033 0.01075,-0.0107 3.828467,-0.0305 8.483822,-0.0439 4.840864,-0.0139 7.780314,-0.007 6.866544,0.0167 -0.87876,0.0226 -1.68011,0.0565 -1.78078,0.0754 -0.20375,0.0382 -0.214,0.13627 -0.0192,0.18383 0.15077,0.0368 -3.9877,0.0976 -7.318365,0.10751 -1.336318,0.004 -3.193615,0.0213 -4.127329,0.0384 l -1.697661,0.0312 1.327017,3.09463 c 1.721036,4.01349 2.725777,6.05828 3.719818,7.57034 0.857254,1.30399 1.618016,1.73348 3.255914,1.83816 l 0.616866,0.0394 -0.792835,-3.6e-4 c -0.436062,-2e-4 -1.011509,-0.0171 -1.278773,-0.0374 z"
     id="path2383" />
  <path
     style="fill:#ffffff;stroke-width:0.409207"
     d="m 102.42967,130.51458 -0.48594,-0.0346 0.61381,-0.0103 c 0.3376,-0.006 1.67264,-0.0553 2.96676,-0.11042 1.29411,-0.0551 3.50383,-0.14788 4.91048,-0.20624 1.40665,-0.0584 2.6515,-0.11748 2.76632,-0.13139 0.20227,-0.0245 0.26284,-0.087 1.94374,-2.00494 3.03763,-3.46605 3.87506,-4.22633 5.38775,-4.89142 0.62546,-0.275 0.61523,-0.22022 -0.0211,0.11284 -1.11887,0.58565 -1.88385,1.15037 -2.81759,2.08002 -0.90284,0.89889 -1.68132,1.92272 -2.41758,3.17953 -0.15044,0.25681 -0.37813,0.5865 -0.50598,0.73266 -0.5018,0.57362 -1.3719,1.04074 -2.09757,1.12607 -0.89997,0.10583 -9.18319,0.23377 -10.24312,0.15821 z"
     id="path2422" />
</svg>
